<svg height="20" width="20" id="Layer_1" enable-background="new 0 0 512 512" viewBox="0 0 512 512" xmlns="http://www.w3.org/2000/svg"><g clip-rule="evenodd" fill-rule="evenodd"><g><g><path d="m39.054 355.931 11.7 127.472c9.018-5.206 16.982-9.283 24.267-12.278 8.595-3.816 17.036-6.017 25.701-6.294 9.205-.406 17.978 1.472 27.576 5.477.01.004.02.008.031.013l63.663 26.589c14.496 6.055 28.91 7.156 43.653 1.719l182.189-67.19c16.256-5.995 24.65-24.201 18.655-40.46-5.993-16.258-24.203-24.654-40.459-18.659l-126.878 46.79c.137-.275.271-.552.401-.832 8.085-17.351.48-38.226-16.871-46.311l-110.292-51.387c-15.007-4.673-29.589-3.352-43.508 3.954z" fill="#ffd6bd"/><path d="m229.933 420.643c14.928 6.947 32.409 2.324 42.171-10.123-.53 2.628-1.373 5.23-2.551 7.759-8.096 17.375-28.94 24.979-46.31 16.871-21.465-10.02-43-19.828-64.515-29.75-4.005-1.847-5.77-6.633-3.924-10.638 1.847-4.005 6.633-5.77 10.638-3.923 21.472 9.901 42.928 19.768 64.491 29.804z" fill="#f9c6aa"/><path d="m49.001 464.299 1.753 19.104c9.019-5.206 16.983-9.283 24.268-12.278 8.595-3.816 17.036-6.017 25.7-6.294 9.205-.406 17.978 1.472 27.576 5.477.01.004.02.008.031.013l63.663 26.589c14.496 6.055 28.91 7.156 43.652 1.719l182.19-67.19c16.257-5.996 24.65-24.201 18.655-40.46-.18-.487-.371-.966-.572-1.438-2.254 10.125-9.436 18.959-19.837 22.795l-182.19 67.19c-14.743 5.437-29.157 4.336-43.653-1.719l-63.662-26.589c-.01-.004-.02-.008-.031-.013-9.597-4.005-18.37-5.883-27.576-5.477-8.664.277-17.106 2.478-25.701 6.294-7.284 2.994-15.248 7.072-24.266 12.277z" fill="#f9c6aa"/><path d="m51.832 331.552 14.302 155.821c.349 3.802-2.475 7.196-6.275 7.545l-28.799 2.643c-3.8.349-7.195-2.474-7.544-6.276l-14.301-155.821c-.349-3.8 2.476-7.196 6.275-7.545l28.799-2.643c3.799-.348 7.194 2.476 7.543 6.276z" fill="#64b5f6"/><path d="m51.832 331.553.167 1.814-26.97 2.475c-3.8.349-6.624 3.742-6.275 7.545l14.135 154.007-1.829.168c-3.799.348-7.195-2.474-7.544-6.276l-14.301-155.822c-.349-3.802 2.476-7.196 6.275-7.545l28.799-2.644c3.799-.347 7.194 2.475 7.543 6.278z" fill="#42a5f5"/></g><g><path d="m74.031 278.357c5.191-69.197 63.434-124.209 133.9-124.209s128.708 55.012 133.9 124.209c.41 5.467-3.859 10.068-9.341 10.068h-249.118c-5.483 0-9.751-4.6-9.341-10.068z" fill="#ffda2d"/><path d="m198.127 154.506c3.239-.236 6.508-.357 9.804-.357 70.467 0 128.708 55.012 133.9 124.209.411 5.467-3.859 10.068-9.341 10.068h-19.609c5.482 0 9.751-4.601 9.341-10.068-4.948-65.961-58.1-119.031-124.095-123.852z" fill="#ffc700"/><circle cx="207.931" cy="81.577" fill="#ffd6bd" r="72.572"/><path d="m207.931 9.005c-2.967 0-5.891.182-8.765.528 35.946 4.328 63.807 34.93 63.807 72.043s-27.861 67.716-63.807 72.044c2.874.346 5.798.528 8.765.528 40.081 0 72.572-32.492 72.572-72.572s-32.492-72.571-72.572-72.571z" fill="#f9c6aa"/></g><g><path d="m502.81 208.044.001 116.369c0 8.75-7.162 15.913-15.913 15.913h-178.333c-8.752 0-15.913-7.162-15.913-15.913l.001-113.36z" fill="#64b5f6"/><path d="m502.81 208.044.001 116.369c0 8.75-7.162 15.913-15.913 15.913h-178.333c-7.208 0-13.337-4.859-15.275-11.464 1.414.415 2.907.638 4.45.638h178.333c8.752 0 15.913-7.163 15.913-15.914l-.001-105.389z" fill="#42a5f5"/><path d="m419.876 253.235v33.192c0 2.392-1.965 4.357-4.357 4.357h-35.577c-2.392 0-4.357-1.96-4.357-4.357v-29.521z" fill="#ffda2d"/><path d="m419.876 253.235v33.192c0 2.392-1.965 4.357-4.357 4.357h-35.577c-2.392 0-4.357-1.96-4.357-4.357v-1.055h34.522c2.392 0 4.357-1.965 4.357-4.357v-27.331z" fill="#ffc700"/><path d="m301.991 187.02h191.48c5.137 0 9.34 4.203 9.34 9.34v47.321c0 12.153-9.943 22.096-22.096 22.096h-165.968c-12.153 0-22.096-9.943-22.096-22.096v-47.321c0-5.137 4.203-9.34 9.34-9.34z" fill="#42a5f5"/><path d="m482.645 187.02h10.825c5.137 0 9.34 4.203 9.34 9.34v47.32c0 12.153-9.943 22.096-22.096 22.096h-10.826c12.153 0 22.096-9.943 22.096-22.096v-47.32c.001-5.137-4.202-9.34-9.339-9.34z" fill="#2d90f1"/><path d="m350.591 211.943h94.279c1.191 0 2.165.974 2.165 2.165v24.58c0 1.191-.974 2.165-2.165 2.165h-94.279c-1.191 0-2.165-.974-2.165-2.165v-24.58c0-1.191.974-2.165 2.165-2.165z" fill="#2d90f1"/><path d="m350.591 211.943h94.279c1.191 0 2.165.974 2.165 2.165v3.247h-91.032c-1.191 0-2.165.974-2.165 2.165v21.332h-3.248c-1.191 0-2.165-.974-2.165-2.165v-24.58c.001-1.19.975-2.164 2.166-2.164z" fill="#1d83d4"/></g></g><path d="m356.425 219.96h82.608v12.911h-82.608zm-8.004 28.911h98.611c4.419 0 7.999-3.58 7.999-7.999v-28.91c0-4.42-3.58-8-7.999-8h-98.611c-4.419 0-7.999 3.58-7.999 8v28.91c0 4.419 3.58 7.999 7.999 7.999zm138.475 83.469h-178.333c-4.358 0-7.909-3.55-7.909-7.909v-54.151c4.212 2.24 8.999 3.51 14.088 3.51h52.843v12.651c0 6.818 5.542 12.358 12.362 12.358h35.576c6.811 0 12.352-5.54 12.352-12.358v-12.651h52.838c5.094 0 9.89-1.27 14.102-3.51v54.151c0 4.359-3.552 7.909-7.919 7.909zm-403.528-51.899c-.41 0-.75-.14-1.014-.42-.259-.292-.377-.64-.349-1.051 4.915-65.49 60.215-116.791 125.9-116.811h.028.024c28.407.011 55.871 9.661 78.142 27.3-.929 2.121-1.448 4.46-1.448 6.922v84.059h-201.283zm59.988-198.851c0-35.609 28.968-64.568 64.577-64.568 35.604 0 64.573 28.959 64.573 64.568 0 35.6-28.954 64.56-64.549 64.571-.009 0-.019 0-.024 0-.009 0-.019 0-.028 0-35.595-.011-64.549-28.971-64.549-64.571zm221.026 87.56c0-2.448 2.07-4.519 4.523-4.519h57.658c2.453 0 4.509 2.071 4.509 4.519v9.892h-66.69zm19.201 104.641v9.01h28.294v-9.01zm111.232-77.409c0-.721-.632-1.341-1.339-1.341h-191.483c-.717 0-1.34.621-1.34 1.341v47.319c0 7.769 6.32 14.09 14.088 14.09h165.971c7.773 0 14.093-6.31 14.102-14.081v-47.328zm15.998 0c0-9.571-7.777-17.34-17.338-17.34h-46.4v-9.892c0-11.32-9.202-20.518-20.512-20.518h-57.658c-11.319 0-20.521 9.198-20.521 20.518v9.892h-46.391c-1.028 0-2.038.099-3.019.28-15.253-12.751-32.817-22.071-51.569-27.53 24.506-13.83 41.099-40.11 41.099-70.201 0-44.429-36.147-80.571-80.571-80.571-44.429 0-80.576 36.142-80.576 80.571 0 30.1 16.597 56.38 41.113 70.21-55.607 16.231-97.903 65.781-102.422 125.98-.358 4.81 1.306 9.6 4.575 13.119 3.268 3.521 7.914 5.54 12.744 5.54h201.283v27.991c0 13.19 10.735 23.91 23.912 23.91h178.333c13.187 0 23.917-10.72 23.917-23.91v-128.049zm-95.748 228.43c12.159-4.492 18.398-18.031 13.918-30.191-2.16-5.861-6.499-10.54-12.23-13.18-5.721-2.629-12.098-2.9-17.951-.741l-124.117 45.772c-7.891 13.16-22.059 20.809-36.788 20.809-6.051 0-12.192-1.28-18.031-4l-58.913-27.451c-4.005-1.87-5.74-6.629-3.872-10.629 1.863-4.011 6.626-5.741 10.631-3.88l58.913 27.449c13.418 6.249 29.426.43 35.68-12.999 6.249-13.419.42-29.421-12.999-35.681l-110.294-51.38c-10.258-4.781-22.511-3.51-36.411 3.781l-40.764 21.399 10.164 110.711c20.521-9.05 39.217-9.219 59.413-.79l63.662 26.591c13.291 5.549 25.657 6.069 37.802 1.599zm-383.677 65.558-14.107-153.71 26.686-2.439 14.107 153.7zm392.067-123.46c-9.603-4.429-20.333-4.86-30.19-1.22l-112.548 41.501c1.08-17.1-8.211-33.939-24.653-41.6l-110.294-51.379c-14.814-6.911-32.312-5.481-50.602 4.119l-34.911 18.32-.458-4.95c-.363-3.97-2.254-7.561-5.325-10.12-3.07-2.549-6.942-3.76-10.914-3.39l-28.798 2.64c-8.202.75-14.263 8.04-13.513 16.241l14.306 155.818c.363 3.971 2.255 7.561 5.33 10.111 2.712 2.259 6.051 3.469 9.523 3.469.462 0 .924-.03 1.387-.07l28.799-2.64c8.207-.75 14.267-8.04 13.512-16.238l-.547-5.951c18.498-9.461 34.156-10.321 51.692-2.99l63.662 26.591c9.287 3.869 18.479 5.809 27.506 5.809 7.461 0 14.809-1.319 21.993-3.97l182.191-67.189c20.432-7.54 30.935-30.301 23.393-50.731-3.642-9.87-10.934-17.75-20.541-22.181z"/></g></svg>