<svg id="Слой_1" height="20" viewBox="0 0 512 512" width="20" xmlns="http://www.w3.org/2000/svg" data-name="Слой 1"><path d="m74.47 504.09a14.23 14.23 0 0 1 -.73-19.86l314-346.64 37.38 35.59-330.77 330.67a14.23 14.23 0 0 1 -19.88.24z" fill="#abf5ff"/><path d="m482 136.08a41.42 41.42 0 1 1 -60-57.08c15.77-16.57 83-27.13 83-27.13s-7.22 67.64-23 84.21z" fill="#ffe3b8"/><path d="m392.59 125.51h51.61v34.64h-51.61z" fill="#cbd1d6" transform="matrix(.724 .689 -.689 .724 213.85 -249.11)"/><path d="m224.87 270.53 49.66-49.66a47.48 47.48 0 0 1 75.88 12l10.09 19.79a37.71 37.71 0 0 0 24.5 19.48l58.64 14.51c58.32 14.44 78.52 87 36 129.52l-59.51 59.51c-42.25 42.32-114.54 22.48-129.33-35.51l-15.09-59.17a37.71 37.71 0 0 0 -18.93-24l-20.52-10.84a47.48 47.48 0 0 1 -11.39-75.63z" fill="#ffc96d"/><path d="m336.18 281.06a36.11 36.11 0 1 1 -35.11-9.3 36.13 36.13 0 0 1 35.11 9.3z" fill="#b8746b"/><path d="m110.29 81 190.78 190.76a36.2 36.2 0 0 0 -25.29 25.29l-190.78-190.78z" fill="#ff758b"/><path d="m36.4 13.14h55.82a0 0 0 0 1 0 0v80.66a13.64 13.64 0 0 1 -13.64 13.64h-28.58a13.64 13.64 0 0 1 -13.6-13.64v-80.66a0 0 0 0 1 0 0z" fill="#b8746b" transform="matrix(.707 -.707 .707 .707 -23.79 63.13)"/><path d="m325.47 363.36h103.33v19.51h-103.33z" fill="#b8746b" transform="matrix(.707 -.707 .707 .707 -153.37 375.96)"/><path d="m167.48 281.06q0 3.12-.23 6.18a80.26 80.26 0 0 1 -160.08-.49q-.2-2.82-.2-5.69a80.26 80.26 0 1 1 160.51 0z" fill="#fff"/><g fill="#cbd1d6"><path d="m87.23 251.27-29.36 21.33 11.21 34.51h36.29l11.21-34.51z"/><path d="m116.59 216.67-29.36 21.33-29.36-21.33 3.8-11.7a80.64 80.64 0 0 1 51.11 0z"/><path d="m46.61 269.67-26.97 24.33-12.47-7.2q-.2-2.82-.2-5.69a79.88 79.88 0 0 1 12.64-43.25l12.23-1.29z"/><path d="m167.48 281.06q0 3.12-.23 6.18l-11.62 6.76-27-24.28 14.76-33.15 11.36 1.19a79.87 79.87 0 0 1 12.73 43.3z"/><path d="m74.95 351.56-8.78 7a80.33 80.33 0 0 1 -43-29.13l2.83-10.34 36.25-1.53z"/><path d="m150.65 330.24a80.29 80.29 0 0 1 -43 28.46l-9.16-7.41 13-33.89 36.24 1.87z"/></g><circle cx="224.05" cy="112.18" fill="#85db58" r="17.79" transform="matrix(.241 -.97 .97 .241 61.1 302.52)"/><circle cx="298.78" cy="150.91" fill="#85db58" r="17.79" transform="matrix(.241 -.97 .97 .241 80.2 404.42)"/><path d="m261.25 36.33 72.92 47 8.14-33.71-73-45.68z" fill="#85db58"/><path d="m424.8 129h-.17a3.93 3.93 0 0 1 -3.77-4.09c0-.77.9-19 13.14-32.32a3.94 3.94 0 1 1 5.81 5.32c-10.25 11.09-11.07 27.09-11.07 27.27a3.94 3.94 0 0 1 -3.94 3.82z"/><path d="m436.57 140.16a3.94 3.94 0 0 1 -1.06-7.73 94.55 94.55 0 0 0 26.92-13.9 3.94 3.94 0 0 1 4.66 6.35 100.69 100.69 0 0 1 -29.46 15.12 4 4 0 0 1 -1.06.16z"/><path d="m370.24 370.16a3.93 3.93 0 0 1 -2.78-1.15l-85.16-85.16a3.94 3.94 0 0 1 5.57-5.57l85.13 85.16a3.94 3.94 0 0 1 -2.78 6.72z"/><path d="m382.89 357.51a3.93 3.93 0 0 1 -2.78-1.15l-81.82-81.82a3.94 3.94 0 0 1 5.57-5.57l81.82 81.82a3.94 3.94 0 0 1 -2.78 6.72z"/><path d="m357.59 382.8a3.93 3.93 0 0 1 -2.78-1.15l-83.46-83.45a3.94 3.94 0 0 1 5.57-5.57l83.46 83.46a3.94 3.94 0 0 1 -2.78 6.72z"/><path d="m52.82 103.56a3.94 3.94 0 0 1 -2.82-6.72l15-15a3.94 3.94 0 0 1 5.57 5.57l-15 15a3.93 3.93 0 0 1 -2.75 1.15z"/><path d="m35.7 86.45a3.94 3.94 0 0 1 -2.78-6.72l15-15a3.94 3.94 0 0 1 5.57 5.57l-15 15a3.93 3.93 0 0 1 -2.79 1.15z"/><path d="m18.59 69.33a3.94 3.94 0 0 1 -2.78-6.72l15-15a3.94 3.94 0 0 1 5.57 5.57l-15 15a3.93 3.93 0 0 1 -2.79 1.15z"/><path d="m88.34 68a3.94 3.94 0 0 1 -2.78-6.72l15-15a3.94 3.94 0 1 1 5.57 5.57l-15 15a3.93 3.93 0 0 1 -2.79 1.15z"/><path d="m71.22 50.93a3.94 3.94 0 0 1 -2.78-6.72l15-15a3.94 3.94 0 1 1 5.56 5.56l-15 15a3.93 3.93 0 0 1 -2.78 1.16z"/><path d="m54.1 33.81a3.94 3.94 0 0 1 -2.78-6.72l15-15a3.94 3.94 0 0 1 5.57 5.57l-15 15a3.93 3.93 0 0 1 -2.79 1.15z"/><path d="m111.4 321.35a3.94 3.94 0 0 1 -3.39-1.94l-6.15-10.41a3.94 3.94 0 1 1 6.78-4l6.14 10.39a3.94 3.94 0 0 1 -3.39 5.94z"/><path d="m62.29 321.58a3.94 3.94 0 0 1 -3.29-6.07l6.85-10.62a3.94 3.94 0 1 1 6.62 4.27l-6.87 10.62a3.94 3.94 0 0 1 -3.31 1.8z"/><path d="m87.32 255.25a3.94 3.94 0 0 1 -3.94-3.94v-13.21a3.94 3.94 0 1 1 7.88 0v13.22a3.94 3.94 0 0 1 -3.94 3.93z"/><path d="m116.58 276.5a3.94 3.94 0 0 1 -.9-7.77l12-2.83a3.94 3.94 0 0 1 1.8 7.67l-12 2.83a3.94 3.94 0 0 1 -.9.1z"/><path d="m57.81 276.5a3.94 3.94 0 0 1 -1-.12l-11.09-2.83a3.94 3.94 0 0 1 1.95-7.63l11.09 2.83a3.94 3.94 0 0 1 -1 7.75z"/><path d="m241.32 120.41a3.94 3.94 0 0 1 -3.82-4.89l22.07-88.73a3.94 3.94 0 0 1 7.64 1.9l-22.07 88.73a3.94 3.94 0 0 1 -3.82 2.99z"/><path d="m316 159.15a3.94 3.94 0 0 1 -3.82-4.89l20.35-81.79a3.94 3.94 0 0 1 7.64 1.9l-20.35 81.79a3.94 3.94 0 0 1 -3.82 2.99z"/><path d="m355.48 246.76a3.94 3.94 0 0 1 -2.78-6.72l66.81-66.79-31.54-30-62.25 68.71a3.94 3.94 0 1 1 -5.84-5.29l65-71.7a3.94 3.94 0 0 1 5.63-.21l37.38 35.59a3.94 3.94 0 0 1 .07 5.64l-69.7 69.61a3.93 3.93 0 0 1 -2.78 1.16z"/><path d="m84.29 512a18.22 18.22 0 0 1 -13.47-30.41l142.83-157.68a3.94 3.94 0 1 1 5.84 5.29l-142.84 157.67a10.3 10.3 0 0 0 14.91 14.19l152.32-152.26a3.94 3.94 0 1 1 5.57 5.57l-152.32 152.26a18.12 18.12 0 0 1 -12.84 5.37z"/><path d="m411 117.12a3.94 3.94 0 0 1 -3.9-3.4 45.19 45.19 0 0 1 12.09-37.47c16.49-17.34 82.45-27.86 85.25-28.3a3.94 3.94 0 0 1 4.53 4.31c0 .1-1.1 10.22-3.3 23.39a3.94 3.94 0 1 1 -7.77-1.3c1.22-7.29 2.09-13.61 2.62-17.77-21.25 3.74-64.52 13.36-75.64 25.1a37.35 37.35 0 0 0 -10 31 3.94 3.94 0 0 1 -3.91 4.47z"/><path d="m452 152.88q-2 0-4-.17a3.94 3.94 0 0 1 .68-7.85 37.38 37.38 0 0 0 30.45-11.5c3.87-4.06 9.7-14.65 15.52-42.06a3.94 3.94 0 0 1 7.7 1.64c-5 23.45-10.88 38.88-17.52 45.85a45.16 45.16 0 0 1 -32.83 14.09z"/><path d="m425.14 177.11a3.94 3.94 0 0 1 -2.72-1.09l-37.42-35.58a3.94 3.94 0 0 1 -.14-5.57l23.89-25.09a3.94 3.94 0 0 1 2.76-1.22 4 4 0 0 1 2.81 1.09l37.38 35.59a3.94 3.94 0 0 1 .14 5.57l-23.84 25.08a3.94 3.94 0 0 1 -2.76 1.22zm-31.81-39.66 31.67 30.16 18.46-19.39-31.68-30.16z"/><path d="m290.8 444.11a3.94 3.94 0 0 1 -3.81-3l-15.09-59.22a33.84 33.84 0 0 0 -17-21.51l-20.52-10.84a51.42 51.42 0 0 1 -12.34-81.82l12.2-12.2a3.94 3.94 0 0 1 5.57 5.57l-12.2 12.2a43.54 43.54 0 0 0 10.49 69.31l20.52 10.84a41.74 41.74 0 0 1 20.91 26.56l15.09 59.22a3.94 3.94 0 0 1 -3.82 4.91z"/><path d="m365.94 502.29a81.82 81.82 0 0 1 -71.45-42 3.94 3.94 0 0 1 6.91-3.77 73.47 73.47 0 0 0 53.95 37.09 72.46 72.46 0 0 0 62-20.75l59.52-59.51a73.26 73.26 0 0 0 -34.2-122.92l-58.59-14.43a41.66 41.66 0 0 1 -27.08-21.54l-10.1-19.8a43.55 43.55 0 0 0 -69.58-11l-12.17 12.18a3.94 3.94 0 1 1 -5.57-5.57l12.17-12.18a51.43 51.43 0 0 1 82.17 13l10.08 19.79a33.78 33.78 0 0 0 22 17.44l58.65 14.51a81.14 81.14 0 0 1 37.84 136.17l-59.49 59.47a80.26 80.26 0 0 1 -57.06 23.82z"/><path d="m310.63 346.66a40 40 0 1 1 28.37-11.72 39.95 39.95 0 0 1 -28.37 11.72zm0-72.24a32.19 32.19 0 1 0 22.81 9.43 32.15 32.15 0 0 0 -22.86-9.43z"/><path d="m275.78 301a3.94 3.94 0 0 1 -2.78-1.15l-190.78-190.79a3.94 3.94 0 0 1 0-5.57l25.29-25.29a3.94 3.94 0 0 1 5.57 0l18.33 18.33a3.94 3.94 0 0 1 -5.57 5.57l-15.55-15.55-19.72 19.72 183.63 183.64a40.17 40.17 0 0 1 19.72-19.72l-156.2-156.19a3.94 3.94 0 0 1 5.57-5.57l160.57 160.57a3.94 3.94 0 0 1 -1.75 6.58 32.26 32.26 0 0 0 -22.53 22.53 3.94 3.94 0 0 1 -3.8 2.9z"/><path d="m77.91 111.64a17.52 17.52 0 0 1 -12.43-5.14l-57-57a3.94 3.94 0 0 1 0-5.57l39.44-39.5a3.94 3.94 0 0 1 5.57 0l57 57a17.6 17.6 0 0 1 0 24.86l-20.15 20.21a17.53 17.53 0 0 1 -12.43 5.14zm-61.11-65 54.25 54.25a9.71 9.71 0 0 0 13.72 0l20.23-20.14a9.71 9.71 0 0 0 0-13.75l-54.3-54.22z"/><path d="m347.5 420.49a3.93 3.93 0 0 1 -2.78-1.15l-13.8-13.8a3.94 3.94 0 0 1 0-5.57l73.08-73.07a3.94 3.94 0 0 1 5.57 0l13.8 13.8a3.94 3.94 0 0 1 0 5.57l-73.07 73.07a3.93 3.93 0 0 1 -2.8 1.15zm-8.23-17.73 8.23 8.24 67.5-67.5-8.23-8.23z"/><path d="m87.23 365.26a84.19 84.19 0 0 1 -83.99-78.26c-.14-1.95-.21-4-.21-6a84.19 84.19 0 1 1 168.39 0c0 2.12-.08 4.29-.24 6.44a83.69 83.69 0 0 1 -17.41 45.11 84 84 0 0 1 -66.54 32.6zm0-160.51a76.29 76.29 0 0 0 -76.32 76.32c0 1.83.06 3.65.19 5.41a75.89 75.89 0 0 0 15.2 40.52 76.29 76.29 0 0 0 121.25.8 75.84 75.84 0 0 0 15.77-40.8c.15-2 .22-3.95.22-5.89a76.25 76.25 0 0 0 -76.32-76.32z"/><path d="m105.37 311.05h-36.29a3.94 3.94 0 0 1 -3.75-2.72l-11.21-34.51a3.94 3.94 0 0 1 1.43-4.4l29.36-21.33a3.94 3.94 0 0 1 4.63 0l29.36 21.33a3.94 3.94 0 0 1 1.43 4.4l-11.21 34.51a3.94 3.94 0 0 1 -3.75 2.72zm-33.43-7.88h30.57l9.49-29.07-24.73-18-24.73 18z"/><path d="m87.23 241.93a3.93 3.93 0 0 1 -2.31-.75l-29.37-21.33a3.94 3.94 0 0 1 -1.43-4.4l3.8-11.7a3.94 3.94 0 0 1 2.49-2.52 84.58 84.58 0 0 1 53.62 0 3.94 3.94 0 0 1 2.49 2.52l3.8 11.7a3.94 3.94 0 0 1 -1.43 4.4l-29.35 21.33a3.93 3.93 0 0 1 -2.31.75zm-24.73-26.77 24.73 18 24.73-18-2.3-7.07a76.76 76.76 0 0 0 -44.87 0z"/><path d="m19.64 297.89a3.93 3.93 0 0 1 -2-.53l-12.44-7.19a3.94 3.94 0 0 1 -2-3.13c-.14-2-.21-4-.21-6a83.9 83.9 0 0 1 13.31-45.36 3.94 3.94 0 0 1 2.9-1.79l12.23-1.29a3.94 3.94 0 0 1 4 2.31l14.77 33.16a3.94 3.94 0 0 1 -1 4.53l-27 24.28a3.94 3.94 0 0 1 -2.56 1.01zm-8.64-13.48 8.15 4.71 22.71-20.45-12.45-27.93-7.48.79a76.06 76.06 0 0 0 -11 39.54c-.02 1.11 0 2.23.07 3.34z"/><path d="m155.63 297.89a3.93 3.93 0 0 1 -2.64-1l-26.99-24.29a3.94 3.94 0 0 1 -1-4.53l14.76-33.15a3.94 3.94 0 0 1 4-2.31l11.36 1.19a3.94 3.94 0 0 1 2.9 1.79 83.89 83.89 0 0 1 13.33 45.48c0 2.13-.08 4.3-.24 6.46a3.94 3.94 0 0 1 -2 3.13l-11.62 6.71a3.93 3.93 0 0 1 -1.86.52zm-22.21-29.23 22.72 20.45 7.31-4.22c.06-1.28.09-2.57.09-3.83a76 76 0 0 0 -11.08-39.63l-6.61-.69z"/><path d="m66.17 362.46a4 4 0 0 1 -1-.14 84.62 84.62 0 0 1 -45.17-30.55 3.94 3.94 0 0 1 -.65-3.43l2.88-10.34a3.94 3.94 0 0 1 3.63-2.88l36.25-1.53a4 4 0 0 1 3.89 2.59l12.66 34a3.94 3.94 0 0 1 -1.24 4.46l-8.78 7a3.94 3.94 0 0 1 -2.47.82zm-38.69-33.91a76.76 76.76 0 0 0 37.83 25.64l5-3.93-10.72-28.65-30.54 1.29z"/><path d="m107.65 362.63a3.94 3.94 0 0 1 -2.48-.88l-9.17-7.4a3.94 3.94 0 0 1 -1.2-4.47l13-33.89a4 4 0 0 1 3.88-2.52l36.24 1.87a3.94 3.94 0 0 1 3.6 2.91l2.95 11a3.94 3.94 0 0 1 -.69 3.44 84.64 84.64 0 0 1 -45.12 29.85 3.94 3.94 0 0 1 -1.01.09zm-4.46-12.63 5.36 4.34a76.78 76.78 0 0 0 37.78-25l-1.69-6.29-30.53-1.57z"/><path d="m224 133.91a21.73 21.73 0 1 1 21.09-16.49 21.77 21.77 0 0 1 -21.09 16.49zm0-35.59a13.86 13.86 0 1 0 3.34.41 13.88 13.88 0 0 0 -3.34-.41z"/><path d="m298.82 172.65a21.89 21.89 0 0 1 -5.28-.65 21.61 21.61 0 1 1 5.28.65zm-.06-35.6a13.86 13.86 0 1 0 13.47 17.2 13.85 13.85 0 0 0 -10.1-16.79 14 14 0 0 0 -3.38-.41z"/><path d="m334.17 87.27a3.94 3.94 0 0 1 -2.13-.63l-72.92-47a3.94 3.94 0 0 1 -1.69-4.26l8.06-32.38a3.94 3.94 0 0 1 5.91-2.4l73 45.68a3.94 3.94 0 0 1 1.74 4.26l-8.14 33.72a3.94 3.94 0 0 1 -3.83 3zm-68.42-52.73 65.9 42.46 6.17-25.56-66-41.3z"/></svg>