<svg height="20" viewBox="0 0 128 128" width="20" xmlns="http://www.w3.org/2000/svg"><g><g><g><path d="m86 121v-35.808a12 12 0 0 0 -10.058-11.841l-19.9-3.264h-16.085l-19.9 3.264a12 12 0 0 0 -10.057 11.841v35.808z" fill="#66538c"/><path d="m71.022 72.544 3.607 18.747-10.126 2.964 1.745 10.32-18.248 16.425-18.248-16.425 1.745-10.32-10.126-2.964 3.607-18.747 14.979-2.457h16.086z" fill="#4a4472"/><path d="m64.503 71.475-16.503 49.525-16.503-49.525 8.46-1.388h16.086z" fill="#e9f4ff"/><path d="m71 30.913v-9.913a14 14 0 0 0 -14-14h-13.921a8 8 0 0 0 -6.747 3.7l-.562.883h-1.27a9.5 9.5 0 0 0 -9.5 9.5v9.828z" fill="#b36615"/><path d="m56.043 70.087v-10.408h-16.086v10.408l8.043 9.041z" fill="#ffab93"/><path d="m25 30.913a4 4 0 0 0 -4 4v2.145a4 4 0 0 0 3.056 3.887l5.2 1.263h37.487l5.2-1.263a4 4 0 0 0 3.057-3.887v-2.145a4 4 0 0 0 -4-4z" fill="#ffab93"/><path d="m28.849 30.913 5.142-8.866a61.318 61.318 0 0 0 14.009 2.583 61.318 61.318 0 0 0 14.009-2.583l5.142 8.866v6.551a27.766 27.766 0 0 1 -11.108 22.215 13.4 13.4 0 0 1 -16.086 0 27.766 27.766 0 0 1 -11.108-22.215z" fill="#ffcdc0"/><path d="m54.033 84.345-3.12 6.471h-5.826l-3.12-6.471 6.033-5.217z" fill="#f4552a"/><path d="m52.185 108.442-1.272-17.626h-5.826l-1.272 17.626 4.185 12.558z" fill="#f73"/><g fill="#cbe2ff"><path d="m39.957 70.087 8.043 9.041-10.832 9.366-5.671-17.019z"/><path d="m56.043 70.087-8.043 9.041 10.832 9.366 5.671-17.019z"/></g></g><path d="m72 61h46v60h-46z" fill="#e9f4ff"/></g><g><path d="m10 84.881a1.75 1.75 0 0 0 -1.75 1.75v34.369a1.75 1.75 0 0 0 3.5 0v-34.369a1.75 1.75 0 0 0 -1.75-1.75z"/><path d="m15.11 73.292a13.654 13.654 0 0 0 -4.219 3.8 1.749 1.749 0 1 0 2.826 2.063 10.227 10.227 0 0 1 3.147-2.833 1.75 1.75 0 1 0 -1.754-3.028z"/><path d="m118 78.192a1.75 1.75 0 0 0 1.75-1.75v-15.442a1.75 1.75 0 0 0 -1.75-1.75h-46a1.75 1.75 0 0 0 -1.75 1.75v9.644l-12.457-2.044v-8.08a29.672 29.672 0 0 0 10.432-16.871l4.131-1a5.736 5.736 0 0 0 4.394-5.588v-2.148a5.76 5.76 0 0 0 -4-5.476v-8.437a1.75 1.75 0 0 0 -3.5 0v8.163h-1.092l-4.636-7.994a1.745 1.745 0 0 0 -2.059-.785 60.113 60.113 0 0 1 -13.463 2.493 60.113 60.113 0 0 1 -13.463-2.493 1.746 1.746 0 0 0 -2.06.785l-4.635 7.994h-1.092v-8.078a7.759 7.759 0 0 1 7.75-7.75h1.269a1.748 1.748 0 0 0 1.476-.81l.563-.882a6.221 6.221 0 0 1 5.271-2.893h13.921a12.18 12.18 0 0 1 9.677 4.738 1.75 1.75 0 0 0 2.763-2.149 15.659 15.659 0 0 0 -12.44-6.089h-13.921a9.7 9.7 0 0 0 -8.223 4.512l-.046.073h-.31a11.263 11.263 0 0 0 -11.25 11.25v8.352a5.76 5.76 0 0 0 -4 5.476v2.145a5.736 5.736 0 0 0 4.394 5.588l4.13 1a29.674 29.674 0 0 0 10.433 16.875v8.079l-13.507 2.216a1.751 1.751 0 0 0 -1.435 1.4l-3.613 18.745a1.751 1.751 0 0 0 1.228 2.01l8.632 2.529-1.486 8.786a1.755 1.755 0 0 0 .555 1.593l18.248 16.421a1.751 1.751 0 0 0 2.342 0l18.248-16.425a1.755 1.755 0 0 0 .555-1.593l-1.486-8.782 3.762-1.1v26.6a1.75 1.75 0 0 0 1.75 1.75h46a1.75 1.75 0 0 0 1.75-1.75v-35.442a1.75 1.75 0 1 0 -3.5 0v33.692h-42.5v-56.5h42.5v13.692a1.75 1.75 0 0 0 1.75 1.75zm-55.806-5.323-4.194 12.591-7.511-6.495 6.223-7zm-20.487-10.145a15.168 15.168 0 0 0 12.586 0v6.7l-6.293 7.076-6.293-7.074zm6.293 18.718 3.875 3.35-2.061 4.274h-3.629l-2.06-4.274zm-1.285 11.124h2.57l1.129 15.653-2.414 7.245-2.414-7.245zm-5.332-5.4 1.925 3.993-.608 8.405-3.5-10.512zm11.917 12.398-.606-8.408 1.925-3.993 2.181 1.889zm19.95-62.506a2.245 2.245 0 0 1 -1.72 2.187l-2.745.666c.068-.811.115-1.627.115-2.447v-4.8h2.1a2.253 2.253 0 0 1 2.25 2.25zm-48.78 2.187a2.245 2.245 0 0 1 -1.72-2.187v-2.145a2.253 2.253 0 0 1 2.25-2.25h2.1v4.8c0 .82.047 1.636.115 2.447zm6.13-1.781v-6.081l4.211-7.262a62.74 62.74 0 0 0 13.094 2.256h.19a62.727 62.727 0 0 0 13.093-2.256l4.212 7.262v6.081a26.14 26.14 0 0 1 -10.407 20.815 11.715 11.715 0 0 1 -13.986 0 26.14 26.14 0 0 1 -10.407-20.815zm8.69 34.506 6.223 7-7.513 6.49-4.2-12.591zm-7.3 20.605-8.6-2.516 3.076-15.986 3.841-.63 13.937 41.822-12.606-11.347 1.585-9.372a1.751 1.751 0 0 0 -1.235-1.971zm32.024 0a1.751 1.751 0 0 0 -1.235 1.971l1.585 9.372-12.609 11.347 13.936-41.822 4.559.748v16.559z"/><path d="m101.5 72.75a1.75 1.75 0 0 0 0-3.5h-13a1.75 1.75 0 0 0 0 3.5z"/><path d="m108 79.25h-26a1.75 1.75 0 0 0 0 3.5h26a1.75 1.75 0 0 0 0-3.5z"/><path d="m82 92.75h13a1.75 1.75 0 0 0 0-3.5h-13a1.75 1.75 0 0 0 0 3.5z"/><path d="m109.75 101a1.75 1.75 0 0 0 -1.75-1.75h-26a1.75 1.75 0 0 0 0 3.5h26a1.75 1.75 0 0 0 1.75-1.75z"/><path d="m82 109.25a1.75 1.75 0 0 0 0 3.5h13a1.75 1.75 0 0 0 0-3.5z"/></g></g></svg>