<svg clip-rule="evenodd" fill-rule="evenodd" height="20" image-rendering="optimizeQuality" shape-rendering="geometricPrecision" text-rendering="geometricPrecision" viewBox="0 0 2000 2000" width="20" xmlns="http://www.w3.org/2000/svg"><g id="Layer_x0020_1"><path d="m1705 1734h-141c-11 0-20-9-20-20v-248c0-11 9-20 20-20h114c11 0 20 9 20 20v104c13 0 27 3 27 20v124c0 11-9 20-20 20zm-983-221-87-7v307h1178v-1502h-1178v59c347-53 661 217 661 568 0 158-64 302-168 406-1 1-2 2-4 3-94 93-219 153-358 164zm-127-15c-43-9-83-23-122-42v233h122zm-162-63c-378-221-383-770 0-993v-275c0-11 9-20 20-20h1218c11 0 20 9 20 20v104h142c11 0 20 8 20 20v1542c0 11-9 20-20 20h-1218c-11 0-20-9-20-20v-104h-142c-11 0-20-9-20-20zm40-1015c39-18 79-32 122-42v-87c0-12 9-20 20-20h1036v-84h-1178zm249-16c-295 0-535 239-535 534 0 138 53 264 139 359 39-65 108-105 185-105h57l16-55c-79-42-117-114-109-202-35-37-83-192-14-269-52-68-32-149 7-126 6 4 17 10 29 15-12-39 11-61 30-49 52 32 50 3 102-16 125-47 342 13 385 177 26 98-24 233-44 267 13 118-49 178-105 207-1 1-2 1-4 2l14 49h57c77 0 147 40 185 105 86-95 139-221 139-359 0-294-240-534-534-534zm-367 923c83 77 190 129 308 142l13-68-5-11c-8 7-20 6-27-1l-106-104c-15-14 1-32 12-53h-39c-66 0-126 37-156 95zm348 145h37l-10-53h-17zm77-3c118-13 226-65 308-142-30-58-90-95-156-95h-39c12 21 27 39 13 53l-107 104c-7 7-19 8-27 1l-4 11zm73-229-101 67 34 39 81-79zm-162 67-100-66-15 26 81 79zm-84-104 114 76 116-76-13-45c-64 21-140 19-203-4zm8-95c41 16 65 25 115 25 42 0 83-10 116-27 66-35 94-93 84-173l-50-136c-23-35-28-33-59-17-39 20-105 53-237 0-23-10-32-4-35-2-26 17-30 92-32 148 0 0-1 1-1 2-11 84 23 145 99 180zm107 225-22 24 9 22h25l9-22zm129-604c55 0 77 78 101 148 48-130 50-257-85-327-81-42-184-50-253-7-22 14-42 23-72 15 7 11 19 19 13 34-13 26-69 2-85-5 4 55 59 74 31 97-50 40-39 122-20 175 7-77 34-150 117-116 165 66 197-14 253-14zm92 897h-201c-26 0-26-40 0-40h201c26 0 26 40 0 40zm0 108h-201c-26 0-26-40 0-40h201c26 0 26 40 0 40zm762-1280h-555c-26 0-26-40 0-40h555c27 0 27 40 0 40zm0 118h-445c-26 0-26-40 0-40h445c27 0 27 40 0 40zm0 259h-307c-11 0-20-9-20-20v-140c0-11 9-20 20-20h307c11 0 20 9 20 20v140c0 11-9 20-20 20zm-287-40h267v-100h-267zm287 159h-190c-26 0-26-40 0-40h190c27 0 27 40 0 40zm0 102h-336c-26 0-26-40 0-40h336c27 0 27 40 0 40zm0 102h-336c-26 0-26-40 0-40h336c27 0 27 40 0 40zm-267-204h-69c-26 0-26-40 0-40h69c26 0 26 40 0 40zm267 313h-336c-26 0-26-40 0-40h336c27 0 27 40 0 40zm-470 471h-141c-11 0-20-9-20-20v-108c0-27 40-27 40 0v88h101v-228c0-26 40-26 40 0v248c0 11-9 20-20 20zm235 0h-141c-11 0-20-9-20-20v-248c0-11 9-20 20-20h141c11 0 20 9 20 20v248c0 11-9 20-20 20zm-121-40h101v-208h-101zm235-124h74v-84h-74zm0 124h101v-84h-101z"/></g></svg>