<?xml version="1.0" encoding="iso-8859-1"?>
<!-- Generator: Adobe Illustrator 22.1.0, SVG Export Plug-In . SVG Version: 6.00 Build 0)  -->
<svg xmlns="http://www.w3.org/2000/svg" xmlns:xlink="http://www.w3.org/1999/xlink" version="1.1" id="Layer_3" x="0px" y="0px" viewBox="0 0 64 64" style="enable-background:new 0 0 64 64;" xml:space="preserve" width="20" height="20">
<g>
	<g>
		<rect x="2" y="2" style="fill:#CCCCCC;" width="42" height="54"/>
	</g>
	<g>
		<rect x="2" y="2" style="fill:#E6E6E6;" width="39" height="54"/>
	</g>
	<g>
		<rect x="28" y="30" style="fill:#BF5043;" width="12" height="20"/>
	</g>
	<g>
		<rect x="28" y="30" style="fill:#FF6A59;" width="9" height="20"/>
	</g>
	<g>
		<polygon style="fill:#FFF284;" points="48,29 48,9 62,9 62,29 59,29 55,33 55,29   "/>
	</g>
	<g>
		<path style="fill:#666666;" d="M47,51l10.293,10.293C57.746,61.746,58.36,62,59,62l0,0c0.64,0,1.254-0.254,1.707-0.707    l0.586-0.586C61.746,60.254,62,59.64,62,59l0,0c0-0.64-0.254-1.254-0.707-1.707L51,47"/>
	</g>
	<g>
		<path style="fill:#808080;" d="M58.293,57.293L49.5,48.5L47,51l10.293,10.293c0.064,0.064,0.137,0.114,0.207,0.17    c0.07-0.055,0.143-0.106,0.207-0.17l0.586-0.586C58.746,60.254,59,59.64,59,59C59,58.36,58.746,57.746,58.293,57.293z"/>
	</g>
	<g>
		<circle style="fill:#758999;" cx="42" cy="42" r="10"/>
	</g>
	<g>
		<circle style="fill:#ACB8C2;" cx="42" cy="42" r="5"/>
	</g>
	<g>
		<ellipse style="fill:#C8D0D6;" cx="40.5" cy="42" rx="3.5" ry="4.746"/>
	</g>
	<g>
		<path d="M44,57H2c-0.553,0-1-0.447-1-1V2c0-0.553,0.447-1,1-1h42c0.553,0,1,0.447,1,1v30h-2V3H3v52h40v-3h2v4    C45,56.553,44.553,57,44,57z"/>
	</g>
	<g>
		<rect x="8" y="5" width="6" height="2"/>
	</g>
	<g>
		<path d="M20,15c-2.206,0-4-1.794-4-4V9c0-2.206,1.794-4,4-4s4,1.794,4,4v2C24,13.206,22.206,15,20,15z M20,7c-1.103,0-2,0.897-2,2    v2c0,1.103,0.897,2,2,2s2-0.897,2-2V9C22,7.897,21.103,7,20,7z"/>
	</g>
	<g>
		<path d="M31,11h-4c-0.553,0-1-0.447-1-1V6c0-0.553,0.447-1,1-1h4c1.654,0,3,1.346,3,3S32.654,11,31,11z M28,9h3    c0.552,0,1-0.448,1-1s-0.448-1-1-1h-3V9z"/>
	</g>
	<g>
		<path d="M31,15h-4c-0.553,0-1-0.447-1-1v-4c0-0.553,0.447-1,1-1h4c1.654,0,3,1.346,3,3S32.654,15,31,15z M28,13h3    c0.552,0,1-0.448,1-1s-0.448-1-1-1h-3V13z"/>
	</g>
	<g>
		<path d="M9,15H7c-0.266,0-0.52-0.105-0.707-0.293l-2-2l1.414-1.414L7.414,13h1.172L10,11.586V6h2v6    c0,0.266-0.105,0.52-0.293,0.707l-2,2C9.52,14.895,9.266,15,9,15z"/>
	</g>
	<g>
		<rect x="5" y="17" width="16" height="2"/>
	</g>
	<g>
		<rect x="5" y="21" width="36" height="2"/>
	</g>
	<g>
		<rect x="5" y="25" width="36" height="2"/>
	</g>
	<g>
		<rect x="5" y="29" width="4" height="2"/>
	</g>
	<g>
		<rect x="11" y="29" width="14" height="2"/>
	</g>
	<g>
		<rect x="5" y="33" width="4" height="2"/>
	</g>
	<g>
		<rect x="11" y="33" width="14" height="2"/>
	</g>
	<g>
		<rect x="5" y="37" width="4" height="2"/>
	</g>
	<g>
		<rect x="11" y="37" width="14" height="2"/>
	</g>
	<g>
		<rect x="5" y="41" width="4" height="2"/>
	</g>
	<g>
		<rect x="11" y="41" width="14" height="2"/>
	</g>
	<g>
		<rect x="5" y="45" width="4" height="2"/>
	</g>
	<g>
		<rect x="11" y="45" width="14" height="2"/>
	</g>
	<g>
		<rect x="5" y="49" width="4" height="2"/>
	</g>
	<g>
		<rect x="11" y="49" width="14" height="2"/>
	</g>
	<g>
		<path d="M31,51h-3c-0.553,0-1-0.447-1-1V30c0-0.553,0.447-1,1-1h12c0.553,0,1,0.447,1,1v2h-2v-1H29v18h2V51z"/>
	</g>
	<g>
		<path d="M42,53c-6.065,0-11-4.935-11-11s4.935-11,11-11s11,4.935,11,11S48.065,53,42,53z M42,33c-4.963,0-9,4.037-9,9s4.037,9,9,9    s9-4.037,9-9S46.963,33,42,33z"/>
	</g>
	<g>
		<path d="M42,48c-3.309,0-6-2.691-6-6s2.691-6,6-6s6,2.691,6,6S45.309,48,42,48z M42,38c-2.206,0-4,1.794-4,4s1.794,4,4,4    s4-1.794,4-4S44.206,38,42,38z"/>
	</g>
	<g>
		<path d="M59,63c-0.912,0-1.77-0.355-2.414-1L46.293,51.707l1.414-1.414L58,60.586c0.535,0.533,1.465,0.533,2,0L60.586,60    C60.853,59.732,61,59.378,61,59s-0.147-0.732-0.414-1L50.293,47.707l1.414-1.414L62,56.586c0.645,0.645,1,1.502,1,2.414    s-0.355,1.77-1,2.414L61.414,62C60.77,62.645,59.912,63,59,63z"/>
	</g>
	<g>
		<rect x="51" y="12" width="8" height="2"/>
	</g>
	<g>
		<rect x="51" y="16" width="8" height="2"/>
	</g>
	<g>
		<rect x="51" y="20" width="8" height="2"/>
	</g>
	<g>
		<rect x="51" y="24" width="8" height="2"/>
	</g>
	<g>
		<path d="M55,34c-0.129,0-0.259-0.024-0.383-0.076C54.243,33.77,54,33.404,54,33v-3h-6c-0.553,0-1-0.447-1-1V9c0-0.553,0.447-1,1-1    h14c0.553,0,1,0.447,1,1v20c0,0.553-0.447,1-1,1h-2.586l-3.707,3.707C55.516,33.898,55.26,34,55,34z M49,28h6c0.553,0,1,0.447,1,1    v1.586l2.293-2.293C58.48,28.105,58.734,28,59,28h2V10H49V28z"/>
	</g>
</g>
</svg>
