<svg height="20" width="20" clip-rule="evenodd" fill-rule="evenodd" stroke-linejoin="round" stroke-miterlimit="2" viewBox="0 0 510 510" xmlns="http://www.w3.org/2000/svg"><g id="Artboard11"><g><g><g><path d="m223.068 267.947h63.864v61.768h-63.864z" fill="#a79ba7"/><path d="m275.773 267.947h11.159v61.768h-11.159z" fill="#837683"/><path d="m438.076 199.753c0-3.281-1.304-6.429-3.624-8.749-2.321-2.321-5.468-3.625-8.75-3.625-9.926 0-23.793 0-33.719 0-3.282 0-6.429 1.304-8.75 3.625-2.32 2.32-3.624 5.468-3.624 8.749v3.29c0 3.282 1.304 6.43 3.624 8.75 2.321 2.321 5.468 3.625 8.75 3.625h33.719c3.282 0 6.429-1.304 8.75-3.625 2.32-2.32 3.624-5.468 3.624-8.75 0-1.092 0-2.197 0-3.29z" fill="#685e68"/><path d="m130.391 199.753c0-3.281-1.304-6.429-3.624-8.749-2.321-2.321-5.468-3.625-8.75-3.625-9.926 0-23.793 0-33.719 0-3.282 0-6.429 1.304-8.75 3.625-2.32 2.32-3.624 5.468-3.624 8.749v3.29c0 3.282 1.304 6.43 3.624 8.75 2.321 2.321 5.468 3.625 8.75 3.625h33.719c3.282 0 6.429-1.304 8.75-3.625 2.32-2.32 3.624-5.468 3.624-8.75 0-1.092 0-2.197 0-3.29z" fill="#685e68"/><path d="m286.932 358.695h-63.864v39.935c0 1.079.429 2.115 1.192 2.878s1.798 1.192 2.878 1.192h55.724c1.08 0 2.115-.429 2.878-1.192s1.192-1.799 1.192-2.878c0-10.901 0-39.935 0-39.935z" fill="#a79ba7"/><path d="m271.231 402.7c1.204 0 2.36-.479 3.211-1.33.852-.852 1.331-2.007 1.331-3.212v-39.463h11.159v39.463c0 1.205-.479 2.36-1.33 3.212-.852.851-2.007 1.33-3.212 1.33z" fill="#837683"/><g fill="#eceff1"><circle cx="330.041" cy="476.676" r="13.352"/><circle cx="255" cy="475.683" r="11.632"/><circle cx="180.776" cy="475.683" r="13.803"/></g><path d="m388.662 343.339c0-11.506-9.327-20.834-20.833-20.834h-225.658c-11.506 0-20.833 9.328-20.833 20.834v5.682c0 11.506 9.327 20.833 20.833 20.833h225.658c11.506 0 20.833-9.327 20.833-20.833 0-1.886 0-3.796 0-5.682z" fill="#837683"/><path d="m124.566 358.43c3.801 2.709 8.452 4.302 13.475 4.302h220.827c12.84 0 23.249-10.409 23.249-23.249v-.851c0-4.317-1.177-8.36-3.228-11.825 5.916 4.215 9.773 11.131 9.773 18.947v.851c0 12.84-10.409 23.249-23.249 23.249h-220.826c-8.523 0-15.974-4.585-20.021-11.424z" fill="#685e68"/><path d="m357.476 94.22c-1.706-39.817-34.482-71.22-74.336-71.22h-56.28c-39.854 0-72.63 31.403-74.336 71.22-2.076 48.476-4.728 110.392-6.329 147.787-.371 8.659 2.81 17.094 8.806 23.353 5.996 6.258 14.287 9.797 22.954 9.797h154.09c8.667 0 16.958-3.539 22.954-9.797 5.996-6.259 9.177-14.694 8.806-23.353-1.601-37.395-4.253-99.311-6.329-147.787z" fill="#ecba78"/><path d="m322.045 275.157c8.667 0 16.958-3.539 22.954-9.797 5.996-6.259 9.177-14.694 8.806-23.353l-6.329-147.787c-1.706-39.817-34.482-71.22-74.336-71.22h10c39.854 0 72.63 31.403 74.336 71.22l6.329 147.787c.371 8.659-2.81 17.094-8.806 23.353-5.996 6.258-14.287 9.797-22.954 9.797z" fill="#e3a76f"/></g><g><path d="m234.472 114.37c0 7.763-6.291 14.053-14.054 14.053s-14.054-6.29-14.054-14.053c0-13.44 5.432-25.592 14.238-34.398 8.807-8.807 20.958-14.238 34.398-14.238s25.591 5.431 34.398 14.238c8.806 8.806 14.238 20.958 14.238 34.398 0 9.573-2.762 18.503-7.549 26.02-4.909 7.764-11.998 14.024-20.405 17.982-2.118.982-3.805 2.455-4.91 4.234-1.105 1.749-1.718 3.897-1.718 6.26v6.935c0 7.763-6.291 14.054-14.054 14.054s-14.054-6.291-14.054-14.054v-6.935c0-7.763 2.179-15.066 6.107-21.295 3.927-6.199 9.604-11.231 16.692-14.545 3.529-1.688 6.536-4.357 8.623-7.671 2.025-3.161 3.191-6.935 3.191-10.985 0-5.677-2.301-10.802-6.014-14.514-3.744-3.744-8.868-6.015-14.545-6.015s-10.801 2.271-14.514 6.015c-3.744 3.712-6.014 8.837-6.014 14.514zm20.528 94.755c7.763 0 14.054 6.29 14.054 14.023 0 7.763-6.291 14.054-14.054 14.054s-14.054-6.291-14.054-14.054c0-7.733 6.291-14.023 14.054-14.023z" fill="#fe646f" fill-rule="nonzero"/></g></g><path d="m93.123 223.484h-12.295c-5.403 0-10.585-2.147-14.406-5.967-3.821-3.821-5.968-9.004-5.968-14.407v-3.821c0-5.404 2.147-10.586 5.968-14.407s9.003-5.968 14.406-5.968h34.827c5.404 0 10.586 2.147 14.407 5.968s5.967 9.003 5.967 14.407v3.821c0 5.403-2.146 10.586-5.967 14.407-3.821 3.82-9.003 5.967-14.407 5.967h-6.532v112.821h2.069c.977-5.901 3.774-11.394 8.058-15.678 5.407-5.408 12.741-8.445 20.388-8.445h74.825v-32.246h-38.597c-10.848 0-21.226-4.43-28.731-12.263s-11.486-18.391-11.022-29.23l6.534-152.565c1.889-44.099 38.19-78.878 82.329-78.878h60.048c44.139 0 80.44 34.779 82.329 78.878l6.534 152.565c.464 10.839-3.517 21.397-11.022 29.23s-17.883 12.263-28.731 12.263h-38.597v32.246h74.825c7.647 0 14.981 3.037 20.388 8.445 4.284 4.284 7.081 9.777 8.058 15.678h3.95v-112.821h-8.413c-5.404 0-10.586-2.147-14.407-5.967-3.821-3.821-5.967-9.004-5.967-14.407v-3.821c0-5.404 2.146-10.586 5.967-14.407s9.003-5.968 14.407-5.968h34.827c5.403 0 10.585 2.147 14.406 5.968s5.968 9.003 5.968 14.407v3.821c0 5.403-2.147 10.586-5.968 14.407-3.821 3.82-9.003 5.967-14.406 5.967h-10.414v120.821c0 4.418-3.582 8-8 8h-11.95c-.977 5.9-3.774 11.393-8.058 15.677-5.407 5.408-12.741 8.446-20.388 8.446h-74.825v25.468c0 3.464-2.202 6.414-5.283 7.527l42.477 19.693c2.827 1.311 4.635 4.143 4.635 7.258v14.37c10.854 3.404 18.738 13.548 18.738 25.518 0 14.757-11.981 26.738-26.738 26.738-14.756 0-26.737-11.981-26.737-26.738 0-11.97 7.883-22.114 18.737-25.518 0-4.378 0-9.261 0-9.261l-58.366-27.06v36.321c10.854 3.404 18.738 13.548 18.738 25.518 0 14.757-11.981 26.738-26.738 26.738s-26.738-11.981-26.738-26.738c0-11.97 7.884-22.114 18.738-25.518v-36.321l-58.366 27.06v9.261c10.854 3.404 18.737 13.548 18.737 25.518 0 14.757-11.981 26.738-26.737 26.738-14.757 0-26.738-11.981-26.738-26.738 0-11.97 7.884-22.114 18.738-25.518v-14.37c0-3.115 1.808-5.947 4.635-7.258l42.477-19.693c-3.081-1.113-5.283-4.063-5.283-7.527v-25.468h-74.825c-7.647 0-14.981-3.038-20.388-8.446-4.284-4.284-7.081-9.777-8.058-15.677h-10.069c-4.418 0-8-3.582-8-8zm277.239 104.698h-230.724c-3.404 0-6.668 1.352-9.075 3.758-2.406 2.407-3.758 5.671-3.758 9.075v6.579c0 3.404 1.352 6.668 3.758 9.075 2.407 2.406 5.671 3.759 9.075 3.759h230.724c3.404 0 6.668-1.353 9.075-3.759 2.406-2.407 3.758-5.671 3.758-9.075v-6.579c0-3.404-1.352-6.668-3.758-9.075-2.407-2.406-5.671-3.758-9.075-3.758zm-139.899-48.246v32.246h49.074v-32.246zm-54.597-16h158.268c6.486 0 12.69-2.649 17.178-7.332 4.487-4.684 6.867-10.996 6.59-17.476l-6.535-152.566c-1.522-35.536-30.774-63.562-66.343-63.562h-60.048c-35.569 0-64.821 28.026-66.343 63.562l-6.535 152.566c-.277 6.48 2.103 12.792 6.59 17.476 4.488 4.683 10.692 7.332 17.178 7.332zm218.479-56.452h34.827c1.16 0 2.272-.461 3.092-1.281.821-.82 1.282-1.933 1.282-3.093v-3.821c0-1.161-.461-2.273-1.282-3.093-.82-.821-1.932-1.282-3.092-1.282h-34.827c-1.16 0-2.273.461-3.093 1.282-.821.82-1.281 1.932-1.281 3.093v3.821c0 1.16.46 2.273 1.281 3.093.82.82 1.933 1.281 3.093 1.281zm-139.345 186.411c.003 0 24.537.001 24.537.001v-17.468h-49.074v17.468s24.534-.001 24.537-.001zm74.366 71.63c-5.926 0-10.737 4.811-10.737 10.737 0 5.927 4.811 10.738 10.737 10.738 5.927 0 10.738-4.811 10.738-10.738 0-5.926-4.811-10.737-10.738-10.737zm-74.366 0c-5.926 0-10.738 4.811-10.738 10.737 0 5.927 4.812 10.738 10.738 10.738s10.738-4.811 10.738-10.738c0-5.926-4.812-10.737-10.738-10.737zm-74.366 0c-5.927 0-10.738 4.811-10.738 10.737 0 5.927 4.811 10.738 10.738 10.738 5.926 0 10.737-4.811 10.737-10.738 0-5.926-4.811-10.737-10.737-10.737zm-60.605-266.236c0-1.161-.46-2.273-1.281-3.093-.82-.821-1.933-1.282-3.093-1.282h-34.827c-1.16 0-2.272.461-3.092 1.282-.821.82-1.282 1.932-1.282 3.093v3.821c0 1.16.461 2.273 1.282 3.093.82.82 1.932 1.281 3.092 1.281h34.827c1.16 0 2.273-.461 3.093-1.281.821-.82 1.281-1.933 1.281-3.093zm134.971-6.164c12.187 0 22.054 9.884 22.054 22.023 0 12.182-9.871 22.054-22.054 22.054s-22.054-9.872-22.054-22.054c0-12.139 9.867-22.023 22.054-22.023zm0 16c-3.339 0-6.054 2.697-6.054 6.023 0 3.344 2.71 6.054 6.054 6.054s6.054-2.71 6.054-6.054c0-3.326-2.715-6.023-6.054-6.023zm-12.528-102.755c0 12.182-9.871 22.053-22.054 22.053s-22.054-9.871-22.054-22.053c0-15.651 6.326-29.8 16.581-40.055s24.404-16.581 40.055-16.581 29.8 6.326 40.055 16.581 16.581 24.404 16.581 40.055c0 11.151-3.221 21.55-8.794 30.307-5.717 9.036-13.966 16.325-23.774 20.943l-.021.009c-.62.288-1.154.674-1.494 1.223l-.017.026c-.348.552-.482 1.244-.482 1.988v6.935c0 12.183-9.871 22.054-22.054 22.054s-22.054-9.871-22.054-22.054v-6.935c0-9.32 2.624-18.084 7.344-25.57l.005-.007c4.716-7.443 11.514-13.504 20.046-17.503 2.15-1.039 3.983-2.67 5.274-4.721l.017-.026c1.229-1.918 1.927-4.211 1.927-6.669 0-3.465-1.405-6.592-3.671-8.858-2.287-2.287-5.42-3.671-8.888-3.671-3.453 0-6.575 1.371-8.857 3.672l-.023.023c-2.278 2.258-3.648 5.38-3.648 8.834zm-16 0c0-7.889 3.161-15.006 8.357-20.171 5.165-5.196 12.283-8.358 20.171-8.358 7.885 0 15.002 3.158 20.202 8.358 5.159 5.16 8.357 12.281 8.357 20.171 0 5.631-1.628 10.877-4.439 15.275-2.889 4.577-7.046 8.265-11.955 10.613l-.032.015c-5.648 2.641-10.187 6.634-13.318 11.572-3.137 4.979-4.869 10.817-4.869 17.021v6.935c0 3.344 2.71 6.054 6.054 6.054s6.054-2.71 6.054-6.054v-6.935c0-3.97 1.086-7.563 2.938-10.506 1.879-3.016 4.702-5.558 8.313-7.24 7.011-3.308 12.925-8.529 17.027-15.016l.007-.01c3.996-6.276 6.297-13.732 6.297-21.724 0-11.23-4.537-21.383-11.895-28.741-7.358-7.359-17.511-11.895-28.741-11.895s-21.383 4.536-28.741 11.895c-7.358 7.358-11.895 17.511-11.895 28.741 0 3.344 2.71 6.053 6.054 6.053s6.054-2.709 6.054-6.053z"/></g></g></svg>