<?xml version="1.0" encoding="iso-8859-1"?>
<!-- Generator: Adobe Illustrator 19.0.0, SVG Export Plug-In . SVG Version: 6.00 Build 0)  -->
<svg height="20" width="20" version="1.1" id="Capa_1" xmlns="http://www.w3.org/2000/svg" xmlns:xlink="http://www.w3.org/1999/xlink" x="0px" y="0px"
	 viewBox="0 0 496 496" style="enable-background:new 0 0 496 496;" xml:space="preserve">
<rect x="40" y="112" style="fill:#FFA64D;" width="288" height="56"/>
<g>
	<path style="fill:#333333;" d="M472,256h-56v-40c0-13.232-10.768-24-24-24h-8V0H108.688L0,108.688V496h184h32h256
		c13.232,0,24-10.768,24-24V280C496,266.768,485.232,256,472,256z M472,272c2.52,0,4.68,1.248,6.152,3.08L434.584,384H360v-16h-64
		v16h-74.584l-43.568-108.92c1.472-1.832,3.632-3.08,6.152-3.08h56h32h112h32H472z M344,384v16h-32v-16H344z M368,256h-80v-16h80
		V256z M400,216v40h-16v-32H272v32h-16v-40c0-4.408,3.592-8,8-8h128C396.408,208,400,211.592,400,216z M27.312,104L104,27.312V104
		H27.312z M16,120h16v56h304v-65.472c9.288-3.312,16-12.112,16-22.528c0-6.168-2.408-11.744-6.24-16c3.832-4.256,6.24-9.832,6.24-16
		c0-13.232-10.768-24-24-24h-40v32v16v32h32v48H48v-40h72V16h248v176H264c-13.232,0-24,10.768-24,24v40h-56
		c-13.232,0-24,10.768-24,24v192c0,2.816,0.576,5.488,1.472,8H16V120z M304,80h24c4.408,0,8,3.592,8,8s-3.592,8-8,8h-24V80z M328,64
		h-24V48h24c4.408,0,8,3.592,8,8S332.408,64,328,64z M472,480H216h-32c-4.408,0-8-3.592-8-8V313.544L210.584,400H296v16h64v-16
		h85.416L480,313.544V472C480,476.408,476.408,480,472,480z"/>
	<rect x="32" y="192" style="fill:#333333;" width="16" height="16"/>
	<rect x="64" y="192" style="fill:#333333;" width="160" height="16"/>
	<rect x="32" y="224" style="fill:#333333;" width="192" height="16"/>
	<rect x="32" y="256" style="fill:#333333;" width="112" height="16"/>
	<rect x="32" y="288" style="fill:#333333;" width="112" height="16"/>
	<rect x="32" y="320" style="fill:#333333;" width="112" height="16"/>
	<rect x="80" y="352" style="fill:#333333;" width="64" height="16"/>
	<rect x="32" y="352" style="fill:#333333;" width="32" height="16"/>
	<rect x="32" y="384" style="fill:#333333;" width="112" height="16"/>
	<rect x="32" y="416" style="fill:#333333;" width="112" height="16"/>
	<rect x="32" y="448" style="fill:#333333;" width="80" height="16"/>
	<rect x="128" y="448" style="fill:#333333;" width="16" height="16"/>
	<path style="fill:#333333;" d="M144,48h16v40c0,4.408-3.592,8-8,8s-8-3.592-8-8v-8h-16v8c0,13.232,10.768,24,24,24s24-10.768,24-24
		V48h16V32h-48V48z"/>
	<path style="fill:#333333;" d="M240,32c-17.648,0-32,14.352-32,32v16c0,17.648,14.352,32,32,32s32-14.352,32-32V64
		C272,46.352,257.648,32,240,32z M256,80c0,8.824-7.176,16-16,16s-16-7.176-16-16V64c0-8.824,7.176-16,16-16s16,7.176,16,16V80z"/>
</g>
<g>
</g>
<g>
</g>
<g>
</g>
<g>
</g>
<g>
</g>
<g>
</g>
<g>
</g>
<g>
</g>
<g>
</g>
<g>
</g>
<g>
</g>
<g>
</g>
<g>
</g>
<g>
</g>
<g>
</g>
</svg>
