<svg height="20" width="20" id="Capa_1" enable-background="new 0 0 512 512" viewBox="0 0 512 512" xmlns="http://www.w3.org/2000/svg"><g><g><path d="m502 100.472c0-11.046-8.954-20-20-20h-452c-11.046 0-20 8.954-20 20v60h492z" fill="#b5b4ee"/><path d="m10 160.472v251.056c0 11.046 8.954 20 20 20h452c11.046 0 20-8.954 20-20v-251.056z" fill="#ffda8f"/><path d="m365.338 284.854-5.68 48.526c-.473 4.037 3.814 6.921 7.376 4.962l7.3-4.015 16.407 29.829c1.334 2.424 4.38 3.309 6.805 1.975l26.34-14.488c2.424-1.334 3.309-4.38 1.975-6.805l-16.407-29.829 7.3-4.015c3.562-1.959 3.421-7.124-.241-8.886l-44.025-21.187c-3.102-1.492-6.75.515-7.15 3.933z" fill="#fff"/></g><g><path d="m482 70.472h-452c-16.542 0-30 13.458-30 30v311.056c0 16.542 13.458 30 30 30h284.145c5.522 0 10-4.477 10-10s-4.478-10-10-10h-284.145c-5.514 0-10-4.486-10-10v-241.056h472v241.056c0 5.514-4.486 10-10 10h-76.735c-5.522 0-10 4.477-10 10s4.478 10 10 10h76.735c16.542 0 30-13.458 30-30v-311.056c0-16.542-13.458-30-30-30zm-462 80v-50c0-5.514 4.486-10 10-10h452c5.514 0 10 4.486 10 10v50z"/><path d="m82.995 274.253c4.163 3.257 11.815 7.234 20.056 7.234 3.715 0 7.551-.809 11.238-2.855 7.683-4.265 12.456-12.453 12.456-21.369v-56.791c0-5.523-4.478-10-10-10s-10 4.477-10 10v56.791c0 1.654-.829 3.141-2.163 3.882-2.349 1.301-7.214-1.101-9.312-2.683-4.348-3.357-10.597-2.58-13.986 1.753-3.405 4.349-2.638 10.634 1.711 14.038z"/><path d="m299.125 230.295c2.357-3.945 3.716-8.552 3.716-13.473 0-14.529-11.82-26.35-26.35-26.35h-20.64c-5.522 0-10 4.477-10 10v32.719.053 38.283c0 5.523 4.477 10 10 10h24.244c16.061 0 29.126-13.104 29.126-29.21.001-8.79-3.919-16.677-10.096-22.022zm-22.634-19.823c3.501 0 6.35 2.849 6.35 6.35s-2.849 6.35-6.35 6.35c-1.532 0-4.431.008-7.582.02h-3.058v-12.719h10.64zm3.605 51.056h-14.244v-18.324c1.034-.004 2.079-.008 3.098-.011h11.146c5.032 0 9.126 4.094 9.126 9.126 0 5.077-4.094 9.209-9.126 9.209z"/><path d="m232.286 236c0-25.104-20.424-45.528-45.527-45.528s-45.528 20.424-45.528 45.528 20.424 45.528 45.527 45.528 45.528-20.424 45.528-45.528zm-71.055 0c0-14.076 11.451-25.528 25.527-25.528s25.527 11.452 25.527 25.528-11.451 25.528-25.527 25.528-25.527-11.452-25.527-25.528z"/><path d="m292.841 301.528h-201.126c-5.522 0-10 4.477-10 10s4.478 10 10 10h201.126c5.522 0 10-4.477 10-10s-4.478-10-10-10z"/><path d="m302.841 351.528c0-5.523-4.478-10-10-10h-201.126c-5.522 0-10 4.477-10 10s4.478 10 10 10h201.126c5.522 0 10-4.477 10-10z"/><path d="m91.715 381.527c-5.522 0-10 4.477-10 10s4.478 10 10 10h137.938c5.522 0 10-4.477 10-10s-4.478-10-10-10z"/><circle cx="359.62" cy="431.525" r="10"/><circle cx="57.229" cy="121.405" r="10"/><circle cx="107.229" cy="121.405" r="10"/><circle cx="157.229" cy="121.405" r="10"/><path d="m434.622 340.02-11.631-21.147c4.087-2.874 6.485-7.588 6.347-12.666-.153-5.64-3.406-10.663-8.489-13.109l-44.023-21.187c-4.363-2.101-9.502-1.962-13.745.373-4.243 2.334-7.111 6.599-7.674 11.409l-5.68 48.524c-.655 5.603 1.845 11.04 6.524 14.189 4.214 2.834 9.478 3.335 14.097 1.422l11.633 21.148c2.73 4.963 7.876 7.772 13.177 7.772 2.443 0 4.92-.598 7.208-1.856l26.341-14.488c3.513-1.933 6.062-5.117 7.18-8.967 1.117-3.85.668-7.905-1.265-11.417zm-37.523 14.945-14.003-25.457c-1.278-2.324-3.427-4.045-5.975-4.784-.914-.266-1.852-.396-2.787-.396-1.236 0-2.467.229-3.627.681l3.75-32.041 29.067 13.989c-3.985 2.926-5.279 8.424-2.832 12.873l14.001 25.457z"/></g></g><g/><g/><g/><g/><g/><g/><g/><g/><g/><g/><g/><g/><g/><g/><g/></svg>