<svg height="20" width="20" id="Layer_1" enable-background="new 0 0 512 512" viewBox="0 0 512 512" xmlns="http://www.w3.org/2000/svg"><g clip-rule="evenodd" fill-rule="evenodd"><path d="m353.75 214.07-14.09-134.43c-2.77-26.43-24.91-46.37-51.49-46.37h-64.83c-26.59 0-48.72 19.94-51.49 46.37l-14.1 134.43c-.75 7.14 1.45 13.97 6.19 19.23 4.74 5.27 11.31 8.17 18.48 8.17h146.64c7.17 0 13.74-2.9 18.48-8.17 4.76-5.27 6.96-12.1 6.21-19.23zm-92-22.31c0 3.32-2.69 6-6 6-3.32 0-6-2.69-6-6 0-3.32 2.69-6 6-6 3.32.01 6 2.69 6 6zm27.13-82.04c0 12.79-7.48 24.57-19.07 30-5.12 2.4-8.06 7.02-8.06 12.67v9.28c0 3.32-2.69 6-6 6-3.32 0-6-2.68-6-6v-9.28c0-10.19 5.73-19.21 14.96-23.54 7.39-3.47 12.16-10.98 12.16-19.14 0-14.34-10.61-20.75-21.12-20.75s-21.12 6.42-21.12 20.75c0 3.32-2.69 6-6 6s-6-2.69-6-6c0-21.5 16.66-32.75 33.12-32.75 16.46.01 33.13 11.26 33.13 32.76z" fill="#2a7abd"/><g fill="#1f5882"><path d="m146.75 202.96c0-8.53-6.93-15.46-15.46-15.46h-43.76c-8.52 0-15.46 6.93-15.46 15.46 0 8.52 6.94 15.46 15.46 15.46h43.77c8.52-.01 15.45-6.94 15.45-15.46z"/><path d="m328.36 253.46h-145.22c-13.47 0-24.43 10.96-24.43 24.43s10.96 24.43 24.43 24.43h145.22c13.47 0 24.43-10.96 24.43-24.43.01-13.46-10.95-24.43-24.43-24.43z"/><path d="m364.75 202.96c0 8.52 6.93 15.46 15.46 15.46h43.76c8.53 0 15.46-6.94 15.46-15.46 0-8.53-6.93-15.46-15.46-15.46h-43.76c-8.52 0-15.46 6.93-15.46 15.46z"/><path d="m140.23 271.9c-13.68 0-24.81-11.13-24.81-24.81v-16.63h-12v16.63c0 20.3 16.51 36.81 36.81 36.81h6.94c-.32-1.95-.49-3.96-.49-6s.17-4.05.49-6z"/><path d="m396.09 247.09c0 13.68-11.13 24.81-24.81 24.81h-6.94c.32 1.95.49 3.96.49 6s-.17 4.05-.49 6h6.94c20.3 0 36.81-16.52 36.81-36.81v-16.63h-12z"/><path d="m240.4 314.34v82.47h-45.5c-19.24 0-34.89 15.65-34.89 34.89v13.67c1.93-.42 3.94-.65 6-.65s4.06.22 6 .65v-13.67c0-12.62 10.27-22.89 22.89-22.89h54.86v36.55c1.93-.42 3.94-.65 6-.65s4.06.22 6 .65v-36.56h54.86c12.62 0 22.89 10.27 22.89 22.89v13.67c1.93-.42 3.94-.65 6-.65s4.06.22 6 .65v-13.67c0-19.24-15.65-34.89-34.89-34.89h-45.5v-82.47h-30.72z"/></g><path d="m182.08 472.81c0-8.86-7.21-16.08-16.08-16.08s-16.08 7.21-16.08 16.08c0 8.86 7.21 16.07 16.08 16.07s16.08-7.21 16.08-16.07zm147.35 0c0 8.86 7.21 16.07 16.08 16.07 8.86 0 16.07-7.21 16.07-16.07s-7.21-16.08-16.07-16.08c-8.87 0-16.08 7.21-16.08 16.08zm-89.75 0c0 8.86 7.21 16.07 16.08 16.07 8.86 0 16.08-7.21 16.08-16.07s-7.21-16.08-16.08-16.08-16.08 7.21-16.08 16.08z" fill="#2a7abd"/></g></svg>