<svg id="Capa_1" enable-background="new 0 0 512 512" height="20" viewBox="0 0 512 512" width="20" xmlns="http://www.w3.org/2000/svg"><g><g><g><circle cx="418.007" cy="418.007" fill="#f9f7f8" r="86.493"/><path d="m418.007 504.5c22.003 0 42.082-8.22 57.347-21.751-10.196-21.423-32.042-36.23-57.347-36.23-25.305 0-47.151 14.808-57.347 36.23 15.265 13.531 35.344 21.751 57.347 21.751z" fill="#c9f6b0"/><path d="m418.007 446.518c-5.169 0-10.19.627-15 1.793 1.359.329 2.7.702 4.023 1.117 27.354 8.582 24.669 48.567-3.541 53.67-.16.029-.321.058-.482.086 4.874.853 9.882 1.316 15 1.316 22.003 0 42.082-8.22 57.347-21.751-10.196-21.423-32.042-36.231-57.347-36.231z" fill="#9be69d"/><circle cx="418.007" cy="419.551" fill="#ffa78f" r="38.129"/><path d="m418.007 381.422c-5.326 0-10.396 1.096-15 3.068 13.6 5.826 23.129 19.329 23.129 35.061s-9.529 29.235-23.129 35.061c4.604 1.973 9.674 3.068 15 3.068 21.058 0 38.129-17.071 38.129-38.129s-17.071-38.129-38.129-38.129z" fill="#f89580"/></g><g><circle cx="93.993" cy="418.007" fill="#f9f7f8" r="86.493"/><path d="m93.993 504.5c22.003 0 42.082-8.22 57.347-21.751-10.196-21.423-32.042-36.23-57.347-36.23-25.305 0-47.151 14.808-57.347 36.23 15.265 13.531 35.344 21.751 57.347 21.751z" fill="#fee97d"/><path d="m93.993 446.518c-5.169 0-10.19.627-15 1.793 1.359.329 2.7.702 4.023 1.117 27.354 8.582 24.669 48.567-3.541 53.67-.16.029-.321.058-.482.086 4.874.853 9.882 1.316 15 1.316 22.003 0 42.082-8.22 57.347-21.751-10.196-21.423-32.042-36.231-57.347-36.231z" fill="#f4da6e"/><circle cx="93.993" cy="419.551" fill="#ffcebf" r="38.129"/><path d="m93.993 381.422c-5.326 0-10.396 1.096-15 3.068 13.6 5.826 23.129 19.329 23.129 35.061s-9.529 29.235-23.129 35.061c4.604 1.973 9.674 3.068 15 3.068 21.058 0 38.129-17.071 38.129-38.129s-17.071-38.129-38.129-38.129z" fill="#ffb09e"/></g><g><circle cx="256" cy="124.482" fill="#f9f7f8" r="116.982"/><path d="m256 241.464c29.758 0 56.916-11.118 77.561-29.419-13.79-28.974-43.337-49.001-77.561-49.001-34.225 0-63.771 20.027-77.561 49.001 20.645 18.301 47.803 29.419 77.561 29.419z" fill="#ff4f6b"/><path d="m256 163.044c-5.118 0-10.128.457-15 1.316 1.56.275 3.105.592 4.634.95 41.04 9.602 37.853 69.487-3.919 75.1-.238.032-.476.063-.715.094 4.912.629 9.917.961 15 .961 29.758 0 56.916-11.118 77.561-29.419-13.79-28.975-43.336-49.002-77.561-49.002z" fill="#fb2b3a"/><circle cx="256" cy="126.571" fill="#ffcebf" r="51.57"/><path d="m256 75.001c-5.218 0-10.253.782-15 2.223 21.164 6.425 36.57 26.083 36.57 49.346s-15.406 42.921-36.57 49.346c4.747 1.441 9.782 2.223 15 2.223 28.481 0 51.57-23.088 51.57-51.57s-23.089-51.568-51.57-51.568z" fill="#ffb09e"/></g><g><path d="m301.92 361.024h79.686c2.314 0 4.19-1.876 4.19-4.19v-79.686c0-3.733-4.513-5.602-7.152-2.963l-24.092 24.092c-1.382 1.382-3.534 1.635-5.187.594-11.337-7.137-23.879-18.079-33.019-34.591-9.907-17.897-11.91-35.275-11.915-46.811-.002-3.711-4.491-5.575-7.129-2.965-8.013 7.93-17.906 20.782-20.465 38.065-4.025 27.194 11.354 57.004 40.042 76.257 2.204 1.479 2.541 4.584.664 6.461l-18.584 18.584c-2.64 2.64-.771 7.153 2.961 7.153z" fill="#c9f6b0"/><path d="m378.644 274.186-24.092 24.092c-1.382 1.382-3.534 1.635-5.187.594-11.337-7.137-23.879-18.079-33.019-34.591-9.907-17.897-11.91-35.275-11.915-46.811-.002-3.711-4.491-5.575-7.128-2.965-6.84 6.77-15.036 17.139-18.884 30.778 1.768 6.096 4.304 12.528 7.928 18.998 14.636 26.131 39.363 39.21 56.256 45.547 7.934 2.977 13.195 10.547 13.195 19.022v27.985c0 2.314-1.876 4.19-4.19 4.19h-49.686 79.686c2.314 0 4.19-1.876 4.19-4.19v-79.686c-.002-3.733-4.515-5.602-7.154-2.963z" fill="#9be69d"/><path d="m210.08 361.024h-79.686c-2.314 0-4.19-1.876-4.19-4.19v-79.686c0-3.733 4.513-5.602 7.152-2.963l24.092 24.092c1.382 1.382 3.534 1.635 5.187.594 11.337-7.137 23.879-18.079 33.019-34.591 9.907-17.897 11.91-35.275 11.915-46.811.002-3.711 4.491-5.575 7.128-2.965 8.013 7.93 17.906 20.782 20.465 38.065 4.025 27.194-11.354 57.004-40.042 76.257-2.204 1.479-2.541 4.584-.664 6.461l18.584 18.584c2.641 2.64.772 7.153-2.96 7.153z" fill="#fee97d"/><g><path d="m194.458 335.288c-1.877-1.877-1.541-4.982.664-6.461 28.687-19.253 44.067-49.063 40.042-76.257-2.559-17.284-12.452-30.135-20.465-38.065-2.638-2.611-7.127-.746-7.128 2.965-.003 7.355-.83 17.089-3.987 27.813.659 2.337 1.206 4.759 1.581 7.288 4.025 27.194-11.354 57.004-40.042 76.257-2.204 1.479-2.541 4.584-.664 6.461l18.584 18.584c2.639 2.639.77 7.152-2.962 7.152h30c3.733 0 5.602-4.513 2.963-7.152z" fill="#f4da6e"/></g></g></g><path d="m418.01 324.01c-8.434 0-16.705 1.127-24.714 3.309v-50.17c0-4.745-2.833-8.984-7.216-10.8-4.382-1.816-9.384-.822-12.739 2.534l-22.202 22.202c-11.99-8.011-21.481-18.24-28.232-30.436-4.96-8.961-7.768-17.847-9.303-25.811 40.451-21.231 66.876-63.913 66.876-110.358 0-68.639-55.841-124.48-124.48-124.48-29.804 0-58.638 10.696-81.191 30.118-3.139 2.703-3.492 7.438-.789 10.577s7.439 3.493 10.577.789c19.832-17.078 45.19-26.484 71.403-26.484 60.368 0 109.48 49.112 109.48 109.48 0 28.424-11.172 55.292-30.109 75.322-8.735-14.04-21.183-25.661-35.771-33.424 9.602-10.508 15.469-24.485 15.469-39.807 0-32.571-26.499-59.069-59.069-59.069s-59.069 26.498-59.069 59.068c0 15.311 5.857 29.278 15.446 39.783-2.343 1.242-4.641 2.581-6.879 4.023-11.745 7.57-21.587 17.622-28.886 29.407-18.926-20.027-30.091-46.887-30.091-75.303 0-20.554 5.725-40.583 16.556-57.921 2.194-3.513 1.125-8.14-2.387-10.334-3.514-2.195-8.141-1.125-10.334 2.387-12.322 19.725-18.834 42.501-18.834 65.869 0 45.313 27.329 89.843 66.876 110.358-1.535 7.963-4.343 16.85-9.303 25.811-6.751 12.196-16.243 22.425-28.232 30.436l-22.202-22.202c-3.355-3.355-8.356-4.349-12.739-2.534-4.384 1.816-7.216 6.055-7.216 10.8v50.17c-8.009-2.182-16.28-3.309-24.714-3.309-51.826 0-93.99 42.168-93.99 94-.002 51.486 42.711 93.989 93.988 93.989 51.227 0 94-42.169 94-93.99 0-17.604-4.948-34.713-14.107-49.486h36.196c4.745 0 8.984-2.833 10.8-7.217s.821-9.384-2.534-12.739l-15.785-15.785c28.688-20.723 44.322-52.259 40.021-81.312-.165-1.118-.364-2.215-.583-3.3 4.63.519 9.308.788 14.001.788s9.371-.269 14.001-.788c-.218 1.085-.417 2.182-.583 3.3-4.301 29.053 11.333 60.59 40.021 81.312l-15.784 15.784c-3.355 3.355-4.351 8.355-2.535 12.739 1.815 4.384 6.055 7.217 10.8 7.217h79.686c6.446 0 11.689-5.244 11.689-11.689v-13.862c7.939-2.619 16.226-3.962 24.714-3.962 43.555 0 78.99 35.439 78.99 79 0 20.137-7.585 38.528-20.034 52.494-6.087-9.032-14.244-16.616-23.671-22.06 6.459-7.874 10.342-17.938 10.342-28.893 0-25.16-20.469-45.629-45.629-45.629s-45.629 20.469-45.629 45.629c0 10.943 3.875 20.996 10.321 28.866-1.048.602-2.08 1.226-3.092 1.879-8.204 5.287-15.185 12.168-20.569 20.198-12.445-13.965-20.028-32.352-20.028-52.485 0-7.256.982-14.441 2.92-21.357 1.118-3.989-1.209-8.128-5.198-9.246-3.99-1.12-8.128 1.209-9.245 5.198-2.307 8.233-3.477 16.781-3.477 25.405 0 51.82 42.778 93.99 94 93.99 51.616 0 93.99-42.386 93.99-93.99.001-51.831-42.163-93.999-93.989-93.999zm-206.079-197.44c0-24.3 19.77-44.069 44.069-44.069s44.069 19.77 44.069 44.069c0 24.3-19.77 44.07-44.069 44.07s-44.069-19.769-44.069-44.07zm-117.941 370.43c-17.951 0-34.514-6.03-47.794-16.156 4.389-7.191 10.365-13.326 17.521-17.943 2.315-1.494 4.764-2.809 7.3-3.952 6.753 3.954 14.602 6.232 22.976 6.232 8.372 0 16.217-2.276 22.969-6.228 10.214 4.625 18.943 12.341 24.814 21.902-13.279 10.12-29.839 16.145-47.786 16.145zm-30.626-77.449c0-16.889 13.74-30.629 30.629-30.629s30.629 13.74 30.629 30.629-13.74 30.629-30.629 30.629c-16.889.001-30.629-13.74-30.629-30.629zm89.609 50.931c-6.093-9.117-14.176-16.632-23.673-22.064 6.447-7.87 10.322-17.924 10.322-28.867 0-25.16-20.469-45.629-45.629-45.629s-45.629 20.469-45.629 45.629c0 10.942 3.874 20.994 10.319 28.864-1.05.603-2.085 1.228-3.099 1.883-8.206 5.294-15.184 12.173-20.56 20.195-12.443-13.965-20.024-32.352-20.024-52.483 0-43.561 35.435-79 78.99-79 8.488 0 16.775 1.344 24.714 3.962v13.862c0 6.446 5.244 11.689 11.689 11.689h25.161c11.264 13.994 17.435 31.435 17.435 49.486.001 20.127-7.577 38.51-20.016 52.473zm37.968-147.882c-2.931 1.967-4.808 5.106-5.15 8.611-.339 3.485.887 6.904 3.363 9.38l12.934 12.934h-68.384v-68.383l18.441 18.441c3.888 3.886 9.844 4.559 14.485 1.637 15.21-9.576 27.183-22.127 35.586-37.306 8.406-15.184 11.405-28.207 12.53-42.232 5.705 6.969 11.286 16.434 12.997 27.987 3.619 24.441-10.826 51.498-36.802 68.931zm45.697-90.358c-4.708-9.84-11.139-17.599-16.664-23.068-3.36-3.327-8.353-4.3-12.719-2.479-4.363 1.819-7.183 6.046-7.186 10.77 0 .362-.008.746-.013 1.12-4.264-2.549-8.33-5.363-12.168-8.427 6.249-10.968 15.056-20.291 25.732-27.172 3.665-2.36 7.514-4.398 11.474-6.102 8.997 5.547 19.583 8.756 30.906 8.756 11.326 0 21.914-3.211 30.913-8.761 15.576 6.72 28.766 18.567 37.182 33.292-3.833 3.06-7.893 5.869-12.152 8.414-.005-.375-.013-.758-.013-1.12-.002-4.724-2.823-8.951-7.186-10.77-4.367-1.821-9.358-.847-12.719 2.479-5.526 5.469-11.957 13.228-16.664 23.068-12.68 2.265-26.042 2.265-38.723 0zm141.658 121.282h-68.384l12.934-12.934c2.477-2.477 3.703-5.896 3.363-9.38-.342-3.505-2.219-6.644-5.15-8.611-25.975-17.432-40.42-44.489-36.802-68.931 1.71-11.554 7.292-21.018 12.996-27.987 1.204 14.15 4.129 27.054 12.531 42.232 8.402 15.179 20.375 27.73 35.586 37.306 4.642 2.922 10.598 2.248 14.486-1.638l18.44-18.44zm39.711 35.398c16.889 0 30.629 13.74 30.629 30.629s-13.74 30.629-30.629 30.629-30.629-13.74-30.629-30.629c0-16.888 13.74-30.629 30.629-30.629zm.003 108.078c-17.953 0-34.518-6.03-47.8-16.156 4.397-7.199 10.375-13.334 17.527-17.943 2.315-1.494 4.762-2.808 7.296-3.951 6.753 3.953 14.6 6.23 22.973 6.23s16.219-2.277 22.971-6.229c10.219 4.629 18.948 12.345 24.812 21.903-13.277 10.121-29.835 16.146-47.779 16.146z"/></g></svg>