<svg height="20" width="20" id="Layer_1" enable-background="new 0 0 512 512" viewBox="0 0 512 512" xmlns="http://www.w3.org/2000/svg"><g><path d="m313.6 241.8c-5.3-21.5-21.9-38.1-43.4-43.4-8.2-2-16.3-2.3-25.2-.7-23.9 4.5-43 23.5-47.3 47.3-.7 3.6-1.1 7.3-1.1 11 0 4.8.6 9.6 1.7 14 5.2 21.4 22.3 38.6 43.7 43.7 4.5 1.1 9.3 1.7 14.1 1.7 3.7 0 7.4-.4 11-1 23.9-4.4 42.8-23.5 47.3-47.3.1-.2.1-.3.1-.4.6-3.5 1-7.1 1-10.6-.2-4.8-.8-9.6-1.9-14.3zm-15.1 22.2c-.1.1-.1.2-.1.4-3.4 17.3-17.2 31-34.5 34.2-6.1 1.2-12.5 1-18.3-.5-15.6-3.7-28.1-16.3-31.8-31.9-.8-3.3-1.2-6.7-1.2-10.2 0-2.7.3-5.3.8-8 3.2-17.4 17.1-31.2 34.5-34.5 2.8-.5 5.5-.7 8.1-.7 3.5 0 7 .4 10.4 1.3 15.7 3.9 27.8 15.9 31.6 31.6.9 3.4 1.3 7 1.3 10.4 0 2.6-.3 5.3-.8 7.9z" fill="#011c27"/><path d="m449.1 376.7c-.1-.1-.1-.2-.1-.3-.1-.1-.2-.3-.2-.4-.4-.7-.9-1.4-1.4-2.1-.1-.1-.1-.2-.2-.3l-86.3-86.3h28.1c4.4 0 8-3.6 8-8v-46.7c0-4.4-3.6-8-8-8h-30.4l32.9-32.9c32.7 7.9 67.3-1.7 91.2-25.6 24.3-24.3 33.9-60 25.1-93.1-.7-2.8-2.9-5-5.7-5.7-2.7-.7-5.7.1-7.8 2.1l-52.3 51.9-51.4-51.8 51.9-51.9c2-2 2.8-5 2.1-7.8s-2.9-4.9-5.7-5.7c-33.2-8.7-68.8.9-93.1 25.1-23.9 23.9-33.5 58.5-25.6 91.2l-32.9 32.9v-30.3c0-4.4-3.6-8-8-8h-46.6c-4.4 0-8 3.6-8 8v28.2l-87-87s-.1 0-.1-.1l-19.8-19.8c-9.8-9.8-22.8-15.2-36.8-15.2-13.9 0-26.9 5.4-36.7 15.2-20.3 20.2-20.3 53.2 0 73.4l19.9 19.9c0 .1.1.1.1.1l86.9 86.9h-28.3c-4.4 0-8 3.6-8 8v46.7c0 4.4 3.6 8 8 8h30.4l-32.8 32.8c-32.6-8-67.2 1.7-91.2 25.6-24.2 24.4-33.9 60.1-25.1 93.3.7 2.8 2.9 5 5.7 5.7s5.7-.1 7.8-2.1l51.8-51.9c.2-.2.5-.1.5-.1l51.4 51.8-51.9 51.9c-2 2-2.8 5-2.1 7.8s2.9 4.9 5.7 5.7c8.1 2.1 16.4 3.2 24.6 3.2 25.4 0 50.2-10 68.5-28.4 24-24 33.6-58.5 25.7-91.2l32.8-32.8v30.4c0 4.4 3.6 8 8 8h46.6c4.4 0 8-3.6 8-8v-28.3l86.4 86.4c.1.1.2.1.3.2.6.5 1.3 1 2.1 1.4.1.1.3.2.4.2s.1.1.2.1l95.5 33.4c.9.3 1.8.4 2.6.4 2.1 0 4.2-.8 5.7-2.4 2.2-2.2 2.9-5.4 1.9-8.3zm-114.3-248.1c2.1-2.1 2.9-5.1 2-7.9-8.3-28.5-.6-59.1 20.3-80 16.7-16.6 39.9-25 63.1-23.4l-40.9 40.9c-3.1 3.1-4.8 7.2-4.8 11.6s1.7 8.5 4.8 11.6l51.4 51.4c3.1 3.1 7.2 4.8 11.5 4.8h.1c4.3 0 8.5-1.7 11.4-4.8l41-40.9c1.7 23.2-6.7 46.3-23.4 63.1-20.9 20.9-51.6 28.7-80 20.3-2.8-.8-5.9-.1-8 2l-32.9 32.9c-.4-.9-.9-1.8-1.4-2.7l23.1-23.2c3.2-3.2 3.2-8.2 0-11.3l-33-33c-1.6-1.6-3.6-2.4-5.7-2.4-2 0-4.1.8-5.7 2.4l-23.2 23.2c-.9-.5-1.8-1-2.7-1.4zm-279.2-22.2c-14-14-14-36.8 0-50.8 6.8-6.8 15.8-10.5 25.4-10.5s18.6 3.7 25.4 10.5l14.2 14.2-50.8 50.8zm25.6 25.5 50.8-50.7 21.5 21.5-50.8 50.8zm32.8 32.9 50.8-50.8 46.8 46.8c-1.3.6-2.7 1.3-4 2-.1.1-.2.1-.3.1l-23.2-23.1c-1.6-1.6-3.6-2.4-5.7-2.4-2 0-4.1.8-5.7 2.4l-33 33c-3.2 3.2-3.2 8.2 0 11.3l23.1 23.2c-.1.2-.2.4-.3.6-.6 1.2-1.2 2.4-1.8 3.5zm63.2 218.6c-2.1 2.1-2.8 5.1-2 8 8.4 28.4.6 59-20.4 79.9-16.7 16.7-39.9 25.1-63 23.4l40.9-40.9c6.4-6.3 6.4-16.7.1-23.1l-51.5-51.5c-6.3-6.3-16.7-6.3-23.1.1l-40.9 40.9c-1.7-23.2 6.7-46.3 23.4-63 21-20.9 51.6-28.7 80-20.3 2.8.9 5.9.1 7.9-2l32.9-32.9c.4.7.7 1.5 1.1 2.2l.3.6-23.1 23.1c-3.2 3.2-3.2 8.2 0 11.3l33 33c1.6 1.6 3.6 2.4 5.7 2.4s4.1-.7 5.7-2.4l23.2-23.1c.1.1.2.1.3.1.9.4 1.7.9 2.5 1.3zm106.4-42.8c-2.1.7-4.2 1.3-6.3 1.8-3.6.9-6 4.1-6 7.8v30.8h-30.6v-30.8c0-3.7-2.6-7-6.2-7.8-2.3-.5-4.7-1.2-7.6-2.3-.1 0-.2 0-.2-.1-2.4-.8-4.8-1.8-7.1-2.8-.5-.2-1-.4-1.4-.6-2.8-1.3-5.5-2.7-8-4.3-2.4-1.4-5.3-1.6-7.7-.4-.8.4-1.6.9-2.2 1.6l-21.8 21.8-21.7-21.7 21.8-21.8c2.6-2.6 3.1-6.7 1.2-9.8-3.3-5.3-5.9-10.9-7.9-16.7 0-.1 0-.1-.1-.1-.9-2.6-1.7-5.1-2.2-7.6-.9-3.6-4.1-6.1-7.8-6.1h-30.8v-30.7h30.8c3.6 0 6.8-2.5 7.8-6 .5-2.1 1.1-4.2 1.8-6.3.1 0 .1-.1.1-.1 2-6.2 4.8-12.3 8.3-18.2 1.9-3.2 1.4-7.2-1.2-9.8l-21.8-21.8 21.7-21.7 21.8 21.8c1.3 1.3 3 2.1 4.7 2.3 1.8.2 3.6-.2 5.1-1.1 5.7-3.4 11.8-6.3 18.3-8.3 2.1-.6 4.1-1.2 6.3-1.8 3.5-.9 6-4.1 6-7.8v-31h30.6v30.8c0 3.7 2.6 7 6.2 7.8 2.4.6 4.8 1.3 7.7 2.3 5.7 1.9 11.3 4.6 16.8 7.9.9.5 1.8.8 2.8 1 2.5.4 5.1-.3 7-2.2l21.8-21.8 21.7 21.7-21.8 21.8c-2.6 2.6-3.1 6.7-1.2 9.8 3.2 5.3 5.8 10.9 7.8 16.7 1 2.8 1.7 5.3 2.3 7.7.9 3.6 4.1 6.2 7.8 6.2h30.8v30.7h-30.8c-3.6 0-6.8 2.5-7.8 6-.5 2.1-1.1 4.2-1.8 6.3-2.1 6.6-4.9 12.7-8.3 18.3-1.9 3.2-1.4 7.2 1.2 9.8l21.8 21.8-21.7 21.7-21.8-21.8c-1.3-1.3-2.9-2.1-4.7-2.3-1.7-.2-3.5.2-5.1 1.1-6 3.5-12.1 6.3-18.4 8.3zm16.9 10.6c1.4-.7 2.8-1.4 4.2-2.1l23.2 23.1c1.6 1.6 3.6 2.4 5.7 2.4s4.1-.7 5.7-2.4l33-33c3.2-3.1 3.2-8.2 0-11.3l-23.1-23.1c.7-1.4 1.4-2.9 2.1-4.3l78.9 78.9-50.8 50.8zm93.6 86.9 44.1-44 23.7 67.8z" fill="#011c27"/><path d="m461.9 461.8-67.8-23.7 44.1-44z" fill="#e9efff"/><path d="m175.1 391.4c8.4 28.4.6 59-20.4 79.9-16.7 16.7-39.9 25.1-63 23.4l40.9-40.9c6.4-6.3 6.4-16.7.1-23.1l-51.5-51.5c-6.3-6.3-16.7-6.3-23.1.1l-40.9 40.9c-1.7-23.2 6.7-46.3 23.4-63 21-20.9 51.6-28.7 80-20.3 2.8.9 5.9.1 7.9-2l32.9-32.9c.4.7.7 1.5 1.1 2.2l.3.6-23.1 23.1c-3.2 3.2-3.2 8.2 0 11.3l33 33c1.6 1.6 3.6 2.4 5.7 2.4s4.1-.7 5.7-2.4l23.2-23.1c.1.1.2.1.3.1.9.4 1.7.9 2.5 1.3l-32.8 32.9c-2.2 2.1-3 5.2-2.2 8z" fill="#1886ea"/><path d="m471.3 154.8c-20.9 20.9-51.6 28.7-80 20.3-2.8-.8-5.9-.1-8 2l-32.9 32.9c-.4-.9-.9-1.8-1.4-2.7l23.1-23.2c3.2-3.2 3.2-8.2 0-11.3l-33-33c-1.6-1.6-3.6-2.4-5.7-2.4-2 0-4.1.8-5.7 2.4l-23.2 23.2c-.9-.5-1.8-1-2.7-1.4l32.9-33c2.1-2.1 2.9-5.1 2-7.9-8.3-28.5-.6-59.1 20.3-80 16.7-16.6 39.9-25 63.1-23.4l-40.9 40.9c-3.1 3.1-4.8 7.2-4.8 11.6s1.7 8.5 4.8 11.6l51.4 51.4c3.1 3.1 7.2 4.8 11.5 4.8h.1c4.3 0 8.5-1.7 11.4-4.8l41-40.9c1.9 23-6.5 46.1-23.3 62.9z" fill="#1886ea"/><path d="m81.4 102.1h71.8v30.4h-71.8z" fill="#e9efff" transform="matrix(.707 -.707 .707 .707 -48.592 117.324)"/><g fill="#9bd8f9"><path d="m120.6 69.8-50.8 50.8-14.2-14.2c-14-14-14-36.8 0-50.8 6.8-6.8 15.8-10.5 25.4-10.5s18.6 3.7 25.4 10.5z"/><path d="m211.6 160.8c-1.3.6-2.7 1.3-4 2-.1.1-.2.1-.3.1l-23.2-23.1c-1.6-1.6-3.6-2.4-5.7-2.4-2 0-4.1.8-5.7 2.4l-33 33c-3.2 3.2-3.2 8.2 0 11.3l23.1 23.2c-.1.2-.2.4-.3.6-.6 1.2-1.2 2.4-1.8 3.5l-46.7-46.6 50.8-50.8z"/><path d="m430.1 379.4-50.8 50.8-78.9-78.9 4.2-2.1 23.2 23.1c1.6 1.6 3.6 2.4 5.7 2.4s4.1-.7 5.7-2.4l33-33c3.2-3.1 3.2-8.2 0-11.3l-23.1-23.1c.7-1.4 1.4-2.9 2.1-4.3z"/></g><path d="m340.6 283.7c.7-2.1 1.3-4.2 1.8-6.3.9-3.5 4.1-6 7.8-6h30.8v-30.7h-30.8c-3.7 0-7-2.5-7.8-6.2-.6-2.4-1.3-4.9-2.3-7.7-2-5.8-4.6-11.4-7.8-16.7-1.9-3.2-1.4-7.2 1.2-9.8l21.8-21.8-21.7-21.7-21.8 21.8c-1.9 1.9-4.5 2.6-7 2.2-1-.2-1.9-.4-2.8-1-5.5-3.3-11.1-5.9-16.8-7.9-2.9-1-5.3-1.7-7.7-2.3-3.6-.9-6.2-4.1-6.2-7.8v-30.8h-30.6v30.8c0 3.7-2.5 6.9-6 7.8-2.1.6-4.2 1.2-6.3 1.8-6.5 2.1-12.6 4.9-18.3 8.3-1.6 1-3.4 1.3-5.1 1.1s-3.4-1-4.7-2.3l-21.8-21.8-21.7 21.7 21.8 21.8c2.6 2.6 3.1 6.7 1.2 9.8-3.6 5.9-6.4 12-8.3 18.2 0 0 0 .1-.1.1-.7 2.1-1.3 4.2-1.8 6.3-.9 3.6-4.1 6-7.8 6h-30.8v30.7h30.8c3.7 0 6.9 2.5 7.8 6.1.6 2.5 1.3 5.1 2.2 7.6.1.1.1.1.1.1 2 5.8 4.6 11.4 7.9 16.7 1.9 3.2 1.4 7.2-1.2 9.8l-21.8 21.8 21.7 21.7 21.8-21.8c.6-.6 1.4-1.2 2.2-1.6 2.4-1.2 5.3-1.1 7.7.4 2.6 1.6 5.2 3 8 4.3.5.2 1 .4 1.4.6 2.3 1 4.7 2 7.1 2.8.1.1.2.1.2.1 3 1.1 5.3 1.8 7.6 2.3 3.6.9 6.2 4.1 6.2 7.8v31h30.6v-30.8c0-3.6 2.5-6.8 6-7.8 2.1-.5 4.2-1.1 6.3-1.8 6.3-2 12.4-4.8 18.2-8.3 1.6-1 3.4-1.3 5.1-1.1 1.8.2 3.4 1 4.7 2.3l21.8 21.8 21.7-21.7-21.8-21.8c-2.6-2.6-3.1-6.7-1.2-9.8 3.6-5.6 6.3-11.8 8.5-18.3zm-26.2-17.1c-.1.1-.1.2-.1.4-4.5 23.9-23.5 42.9-47.3 47.3-3.5.6-7.3 1-11 1-4.8 0-9.5-.5-14.1-1.7-21.3-5.1-38.5-22.3-43.7-43.7-1.1-4.4-1.7-9.2-1.7-14 0-3.7.4-7.4 1.1-11 4.4-23.8 23.4-42.8 47.3-47.3 9-1.6 17-1.3 25.2.7 21.5 5.3 38.1 21.9 43.4 43.4 1.1 4.8 1.7 9.5 1.7 14.2.1 3.7-.2 7.2-.8 10.7z" fill="#2a428c"/></g></svg>