<svg id="_x33_0" enable-background="new 0 0 64 64" height="20" viewBox="0 0 64 64" width="20" xmlns="http://www.w3.org/2000/svg"><g><g><g><path d="m28.21 25.11c1.18.58 2.47.89 3.79.89s2.61-.31 3.79-.89l.21-.11c1.4.23 2.73.67 3.95 1.26-3.43.91-5.95 4.03-5.95 7.74v2.17c0 1.81-.72 3.55-2 4.83 1.01 3.02 3.34 5.36 6.26 6.4-.94.28-1.83.65-2.66 1.1-1.35.71-2.56 1.64-3.6 2.72-2.09-2.17-4.85-3.69-8-4.22l-.8-3.18c1.62-.51 2.8-2.03 2.8-3.82v-2h2c.55 0 1.05-.22 1.41-.59.37-.36.59-.86.59-1.41 0-.65-.32-1.23-.8-1.6l.45-1.34c.23-.7.35-1.44.35-2.18 0-2.36-1.19-4.44-3-5.67v-.01c.33-.08.66-.14 1-.2z" fill="#e6e9ed"/></g><g><path d="m32.6 51.88c-.19-.23-.39-.45-.6-.66-2.09-2.17-4.85-3.69-8-4.22l-.21.11c-1.18.58-2.47.89-3.79.89s-2.61-.31-3.79-.89l-.21-.11c-1.91.32-3.68 1.01-5.24 1.98-1.55.98-2.91 2.23-3.97 3.69l-.43-4.7-.36.03h-4v8.09c0 1.08.44 2.06 1.14 2.77.71.7 1.69 1.14 2.77 1.14 1.31 0 2.53-.65 3.25-1.74l.84-1.26v5h26v-.83c0-3.51-1.27-6.77-3.4-9.29z" fill="#fcd770"/></g><g><path d="m35 12h-4-5-2c-.43 0-.83.13-1.16.37l-.73-2.95c-.07-.28-.11-.57-.11-.86 0-.76.24-1.49.67-2.08s1.03-1.05 1.76-1.29l.57-.19c.62-.94 1.46-1.68 2.43-2.2.96-.52 2.05-.8 3.18-.8h4.51c3.8 0 6.88 3.08 6.88 6.88 0 .74-.12 1.48-.35 2.18l-.45 1.34c-.34-.25-.75-.4-1.2-.4h-2z" fill="#656d78"/></g><g><path d="m30 30.88c0 .74-.12 1.48-.35 2.18l-.45 1.34c-.34-.25-.75-.4-1.2-.4h-2-2.39c-2.36 0-4.65-.7-6.61-2l-3 2h-2c-.43 0-.83.13-1.16.37l-.73-2.95c-.07-.28-.11-.57-.11-.86 0-.76.24-1.49.67-2.08.34-.47.79-.86 1.33-1.11.14-.07.28-.13.43-.18l.57-.19c.62-.94 1.46-1.68 2.43-2.2.47-.26.97-.45 1.5-.59.54-.14 1.1-.21 1.68-.21h4.51c1.44 0 2.78.44 3.88 1.21 1.81 1.23 3 3.31 3 5.67z" fill="#656d78"/></g><g><path d="m58 48-.36-.03-.43 4.7c-1.06-1.46-2.42-2.71-3.97-3.69-1.08-.67-2.25-1.2-3.5-1.57l-1.74-.41-.21.11c-1.18.58-2.47.89-3.79.89s-2.61-.31-3.79-.89l-.21-.11-1.74.4c-.94.28-1.83.65-2.66 1.1-1.35.71-2.56 1.64-3.6 2.72.21.21.41.43.6.66 2.13 2.52 3.4 5.78 3.4 9.29v.83h18v-5l.84 1.26c.72 1.09 1.94 1.74 3.25 1.74 1.08 0 2.06-.44 2.77-1.14.7-.71 1.14-1.69 1.14-2.77v-8.09z" fill="#b4dd7f"/></g><g><path d="m49.74 47.4v.01l-1.74-.41-.96-3.83c1.77-1.04 2.96-2.97 2.96-5.17v-3l-1.59-.26c-2.92-.49-5.76-1.41-8.41-2.74-1.28 1.28-2 3.02-2 4.83v1.17c0 1.66.67 3.16 1.76 4.24.36.36.76.67 1.2.93l-.96 3.83-1.74.4c-2.92-1.04-5.25-3.38-6.26-6.4 1.28-1.28 2-3.02 2-4.83v-2.17c0-3.71 2.52-6.83 5.95-7.74.65-.17 1.34-.26 2.05-.26h4c4.42 0 8 3.58 8 8v2.17c0 1.81.72 3.55 2 4.83-1.01 3.02-3.34 5.36-6.26 6.4z" fill="#fcd770"/></g><g><path d="m50 54.83c0 .75-.3 1.47-.83 2l-5.17 5.17-5.17-5.17c-.53-.53-.83-1.25-.83-2 0-.78.32-1.49.83-2s1.22-.83 2-.83c.75 0 1.47.3 2 .83l1.17 1.17 1.17-1.17c.53-.53 1.25-.83 2-.83.78 0 1.49.32 2 .83s.83 1.22.83 2z" fill="#ff826e"/></g><g><path d="m26 54.83c0 .75-.3 1.47-.83 2l-5.17 5.17-5.17-5.17c-.53-.53-.83-1.25-.83-2 0-.78.32-1.49.83-2s1.22-.83 2-.83c.75 0 1.47.3 2 .83l1.17 1.17 1.17-1.17c.53-.53 1.25-.83 2-.83.78 0 1.49.32 2 .83s.83 1.22.83 2z" fill="#ff826e"/></g><g><path d="m28 34c.45 0 .86.15 1.2.4.48.37.8.95.8 1.6 0 .55-.22 1.05-.59 1.41-.36.37-.86.59-1.41.59h-2v-4z" fill="#f0d0b4"/></g><g><path d="m23.2 43.82.8 3.18-.21.11c-1.18.58-2.47.89-3.79.89s-2.61-.31-3.79-.89l-.21-.11.8-3.18c.38.12.78.18 1.2.18h4c.42 0 .82-.06 1.2-.18z" fill="#f0d0b4"/></g><g><path d="m26 34v4 2c0 1.79-1.18 3.31-2.8 3.82-.38.12-.78.18-1.2.18h-4c-.42 0-.82-.06-1.2-.18-1.62-.51-2.8-2.03-2.8-3.82v-2-4l3-2c1.96 1.3 4.25 2 6.61 2z" fill="#f0d0b4"/></g><g><path d="m14 34v4h-2c-.55 0-1.05-.22-1.41-.59-.37-.36-.59-.86-.59-1.41 0-.67.33-1.26.84-1.63.33-.24.73-.37 1.16-.37z" fill="#f0d0b4"/></g><g><path d="m8 40.83c0 .75-.3 1.47-.83 2l-1.17 1.17.36 3.97-.36.03h-4v-6.83c0-1.75 1.42-3.17 3.17-3.17.78 0 1.49.32 2 .83s.83 1.22.83 2z" fill="#f0d0b4"/></g><g><path d="m62 41.17v6.83h-4l-.36-.03.36-3.97-1.17-1.17c-.49-.49-.78-1.14-.82-1.83-.01-.06-.01-.11-.01-.17 0-.78.32-1.49.83-2s1.22-.83 2-.83c1.75 0 3.17 1.42 3.17 3.17z" fill="#f0d0b4"/></g><g><path d="m47.04 43.17.96 3.83-.21.11c-1.18.58-2.47.89-3.79.89s-2.61-.31-3.79-.89l-.21-.11.96-3.83c.89.53 1.93.83 3.04.83s2.15-.3 3.04-.83z" fill="#f0d0b4"/></g><g><path d="m50 35v3c0 2.2-1.19 4.13-2.96 5.17-.89.53-1.93.83-3.04.83s-2.15-.3-3.04-.83c-.44-.26-.84-.57-1.2-.93-1.09-1.08-1.76-2.58-1.76-4.24v-1.17c0-1.81.72-3.55 2-4.83 2.65 1.33 5.49 2.25 8.41 2.74z" fill="#f0d0b4"/></g><g><path d="m40 12c.45 0 .86.15 1.2.4.07.06.14.12.21.19.37.36.59.86.59 1.41 0 1.1-.9 2-2 2h-2v-4z" fill="#f0d0b4"/></g><g><path d="m35.2 21.82.8 3.18-.21.11c-1.18.58-2.47.89-3.79.89s-2.61-.31-3.79-.89l-.21-.11.8-3.18c.38.12.78.18 1.2.18h4c.42 0 .82-.06 1.2-.18z" fill="#f0d0b4"/></g><g><path d="m38 16v2c0 1.79-1.18 3.31-2.8 3.82-.38.12-.78.18-1.2.18h-4c-.42 0-.82-.06-1.2-.18-1.62-.51-2.8-2.03-2.8-3.82v-2-4h5 4 3z" fill="#f0d0b4"/></g><g><path d="m26 12v4h-2c-.55 0-1.05-.22-1.41-.59-.37-.36-.59-.86-.59-1.41 0-.67.33-1.26.84-1.63.33-.24.73-.37 1.16-.37z" fill="#f0d0b4"/></g><g><path d="m13 27-.57.19c-.15.05-.29.11-.43.18v-16.2c0-1.75 1.42-3.17 3.17-3.17.78 0 1.49.32 2 .83s.83 1.22.83 2c0 .75-.3 1.47-.83 2l-1.17 1.17.93 10.21c-.53.14-1.03.33-1.5.59-.97.52-1.81 1.26-2.43 2.2z" fill="#f0d0b4"/></g></g><g><path d="m58.828 37c-1.348 0-2.529.704-3.212 1.76-.396-.8-.616-1.687-.616-2.588v-2.172c0-4.963-4.037-9-9-9h-4c-.667 0-1.315.078-1.94.216-1.038-.477-2.124-.844-3.245-1.08l-.441-1.764c1.556-.848 2.626-2.479 2.626-4.372v-1h1c1.654 0 3-1.346 3-3 0-.704-.254-1.343-.661-1.855l.255-.769c.269-.805.406-1.644.406-2.493 0-4.347-3.536-7.883-7.883-7.883h-4.512c-2.475 0-4.779 1.173-6.234 3.155l-.257.086c-1.863.621-3.114 2.359-3.114 4.322 0 .375.046.748.137 1.104l.597 2.39c-.451.525-.734 1.198-.734 1.943 0 1.654 1.346 3 3 3h1v1c0 1.893 1.07 3.524 2.626 4.373l-.441 1.763c-.003.001-.006.002-.01.002-1.186-.717-2.572-1.138-4.058-1.138h-4.512c-.262 0-.521.02-.779.046l-.789-8.67.841-.841c.724-.722 1.122-1.684 1.122-2.707 0-2.11-1.718-3.828-3.828-3.828-2.301 0-4.172 1.871-4.172 4.172v15.631c-1.227.833-2 2.223-2 3.759 0 .37.046.741.137 1.104l.597 2.39c-.451.526-.734 1.199-.734 1.944 0 1.654 1.346 3 3 3h1v1c0 1.893 1.07 3.524 2.626 4.373l-.441 1.763c-2.908.612-5.528 2.042-7.614 4.11l-.534-5.87.841-.841c.724-.722 1.122-1.684 1.122-2.707 0-2.11-1.718-3.828-3.828-3.828-2.301 0-4.172 1.871-4.172 4.172v14.92c0 2.706 2.202 4.908 4.908 4.908 1.145 0 2.229-.404 3.092-1.106v3.106h46v-3.107c.863.703 1.947 1.107 3.092 1.107 2.706 0 4.908-2.202 4.908-4.908v-14.92c0-2.301-1.871-4.172-4.172-4.172zm0 2c1.197 0 2.172.975 2.172 2.172v5.828h-2.269l.307-3.376-1.503-1.503c-.34-.34-.535-.811-.535-1.293 0-1.008.82-1.828 1.828-1.828zm-2.4 11.245c-1.231-1.22-2.649-2.211-4.204-2.947 1.568-.97 2.858-2.307 3.78-3.906.042.046.073.098.117.143l.841.841zm-10.428-23.245c3.859 0 7 3.141 7 7v2.172c0 1.836.667 3.635 1.842 5.037-.949 2.368-2.803 4.213-5.189 5.144-.278-.075-.554-.157-.838-.217l-.634-2.535c1.707-1.278 2.819-3.31 2.819-5.601v-3.848l-2.425-.403c-2.829-.472-5.564-1.361-8.128-2.644l-.645-.322-.51.51c-1.456 1.457-2.292 3.475-2.292 5.535v1.172c0 2.291 1.112 4.323 2.819 5.601l-.634 2.535c-.288.061-.57.136-.851.212-2.377-.932-4.236-2.763-5.186-5.122 1.184-1.404 1.852-3.211 1.852-5.054v-2.172c0-3.859 3.141-7 7-7zm-2 16c-2.757 0-5-2.243-5-5v-1.172c0-1.301.447-2.578 1.245-3.599 2.54 1.192 5.229 2.03 8.002 2.492l.753.127v2.152c0 2.757-2.243 5-5 5zm-2.365 1.58c.74.267 1.534.42 2.365.42s1.625-.153 2.365-.42l.462 1.85c-1.792.726-3.861.726-5.653 0zm-4.318-18.251c-2.584 1.583-4.317 4.425-4.317 7.671v2.172c0 1.534-.622 3.036-1.707 4.121l-.509.512.291.582c.848 2.493 2.507 4.553 4.689 5.906-1.365.648-2.628 1.496-3.758 2.531-1.973-1.801-4.426-3.107-7.191-3.688l-.441-1.763c1.556-.849 2.626-2.48 2.626-4.373v-1h1c1.654 0 3-1.346 3-3 0-.704-.254-1.343-.661-1.855l.255-.769c.269-.805.406-1.644.406-2.493 0-1.52-.44-2.936-1.188-4.141.717.17 1.453.258 2.188.258 1.423 0 2.846-.333 4.129-.954.401.076.797.171 1.188.283zm-10.317 8.671h1c.552 0 1 .448 1 1s-.448 1-1 1h-1zm13-20h-1v-2h1c.552 0 1 .448 1 1s-.448 1-1 1zm-15 0h-1c-.552 0-1-.448-1-1s.448-1 1-1h1zm-1-4c-.157 0-.308.023-.458.046l-.466-1.866c-.051-.2-.076-.408-.076-.617 0-1.102.702-2.075 1.746-2.424l.896-.298.19-.286c1.066-1.6 2.851-2.555 4.773-2.555h4.512c3.244 0 5.883 2.639 5.883 5.883 0 .634-.102 1.26-.303 1.861l-.105.316c-.191-.039-.389-.06-.592-.06h-3v7c0 1.654-1.346 3-3 3h-4c-1.654 0-3-1.346-3-3v-7zm6 12h4c.157 0 .305-.032.458-.046l.369 1.477c-1.793.726-3.861.726-5.654 0l.369-1.477c.153.014.301.046.458.046zm-14.828-14c1.008 0 1.828.82 1.828 1.828 0 .481-.195.953-.535 1.293l-1.503 1.503.898 9.882c-1.079.409-2.057 1.056-2.86 1.902v-14.236c0-1.197.975-2.172 2.172-2.172zm-3.172 28c-.552 0-1-.448-1-1s.448-1 1-1h1v2zm1.697-4h-1.697c-.157 0-.308.023-.458.046l-.465-1.864c-.052-.203-.077-.412-.077-.619 0-1.102.702-2.075 1.746-2.424l.896-.298.19-.286c1.066-1.6 2.851-2.555 4.773-2.555h4.512c3.244 0 5.883 2.639 5.883 5.883 0 .634-.102 1.26-.303 1.861l-.105.316c-.191-.039-.389-.06-.592-.06h-1-1-2.395c-2.16 0-4.253-.634-6.051-1.832l-.554-.37zm1.303 1.535 2.016-1.344c1.994 1.186 4.258 1.809 6.589 1.809h1.395v5c0 1.654-1.346 3-3 3h-4c-1.654 0-3-1.346-3-3zm3 10.465h4c.157 0 .305-.032.458-.046l.369 1.477c-1.792.726-3.861.726-5.654 0l.369-1.477c.153.014.301.046.458.046zm-12.828-6c1.008 0 1.828.82 1.828 1.828 0 .481-.195.953-.535 1.293l-1.503 1.503.307 3.376h-2.269v-5.828c0-1.197.975-2.172 2.172-2.172zm3.828 16v1.697l-.672 1.008c-.541.811-1.445 1.295-2.42 1.295-1.603 0-2.908-1.305-2.908-2.908v-7.092h2.45l.553 6.091 1.992-.182-.175-1.933c2.007-2.584 4.842-4.32 8.057-4.928 1.281.62 2.702.952 4.123.952 1.422 0 2.843-.333 4.125-.952 6.263 1.184 10.79 6.567 10.868 12.952h-3.993v-6h-2v6h-6.586l3.465-3.465c.723-.722 1.121-1.684 1.121-2.707 0-2.11-1.718-3.828-3.828-3.828-1.022 0-1.984.398-2.707 1.121l-.465.465-.465-.465c-.722-.723-1.684-1.121-2.707-1.121-2.11 0-3.828 1.718-3.828 3.828 0 1.022.398 1.984 1.121 2.707l3.465 3.465h-6.586v-6zm11 5.586-4.465-4.465c-.34-.34-.535-.811-.535-1.293 0-1.008.82-1.828 1.828-1.828.481 0 .953.195 1.293.535l1.172 1.172c.391.391 1.023.391 1.414 0l1.172-1.172c.34-.34.811-.535 1.293-.535 1.008 0 1.828.82 1.828 1.828 0 .481-.195.953-.535 1.293zm38.092-1.586c-.975 0-1.879-.484-2.42-1.295l-.672-1.008v-1.697h-2v6h-6.586l3.465-3.465c.723-.722 1.121-1.684 1.121-2.707 0-2.11-1.718-3.828-3.828-3.828-1.022 0-1.984.398-2.707 1.121l-.465.465-.465-.465c-.722-.723-1.684-1.121-2.707-1.121-2.11 0-3.828 1.718-3.828 3.828 0 1.022.398 1.984 1.121 2.707l3.465 3.465h-4.593c-.039-3.69-1.371-7.087-3.6-9.733 1.824-1.657 4.042-2.759 6.48-3.22 1.282.62 2.705.953 4.127.953 1.421 0 2.842-.332 4.123-.951 3.215.608 6.05 2.344 8.057 4.928l-.176 1.933 1.992.182.554-6.092h2.45v7.092c0 1.603-1.305 2.908-2.908 2.908zm-14.092 1.586-4.465-4.465c-.34-.34-.535-.811-.535-1.293 0-1.008.82-1.828 1.828-1.828.481 0 .953.195 1.293.535l1.172 1.172c.391.391 1.023.391 1.414 0l1.172-1.172c.34-.34.811-.535 1.293-.535 1.008 0 1.828.82 1.828 1.828 0 .481-.195.953-.535 1.293z"/><path d="m33 7.764h2v4.472h-2z" transform="matrix(.894 -.447 .447 .894 -.883 16.261)"/><path d="m29 7.764h2v4.472h-2z" transform="matrix(.894 -.447 .447 .894 -1.305 14.472)"/></g></g></svg>