<svg height="20" width="20" id="Layer_2" enable-background="new 0 0 100 100" viewBox="0 0 100 100" xmlns="http://www.w3.org/2000/svg"><g><g><g><path d="m85.3 11.3h-70.6c-1.9 0-3.4 1.5-3.4 3.4v10.1h77.3v-10.1c.1-1.8-1.5-3.4-3.3-3.4z" fill="#95edff"/><path d="m88.7 26.5h-77.4c-.9 0-1.7-.8-1.7-1.7v-10.1c0-2.8 2.3-5 5-5h70.6c2.8 0 5 2.3 5 5v10.1c.1.9-.6 1.7-1.5 1.7zm-75.7-3.4h74v-8.4c0-.9-.8-1.7-1.7-1.7h-70.6c-.9 0-1.7.8-1.7 1.7z" fill="#00b7ff"/></g><g><path d="m31.5 24.8-5-6.7h-10.1l-5 6.7v60.5c0 1.9 1.5 3.4 3.4 3.4h70.6c1.9 0 3.4-1.5 3.4-3.4v-60.5z" fill="#fff"/><path d="m85.3 90.3h-70.6c-2.8 0-5-2.3-5-5v-60.5c0-.4.1-.7.3-1l5-6.7c.3-.4.8-.7 1.3-.7h10.1c.5 0 1 .3 1.3.7l4.5 6.1h56.3c.4 0 .9.2 1.2.5s.5.8.5 1.2v47.5c0 .9-.8 1.7-1.7 1.7s-1.7-.8-1.7-1.7v-45.9h-55.3c-.5 0-1-.3-1.3-.7l-4.5-6h-8.4l-4.3 5.5v59.9c0 .9.8 1.7 1.7 1.7h70.6c.8 0 1.5-.6 1.7-1.4.1-.9 1-1.6 1.9-1.4.4.1.8.3 1.1.6.3.4.4.8.3 1.3-.4 2.5-2.5 4.3-5 4.3zm3.4-9.6c-.9 0-1.7-.8-1.7-1.7s.8-1.7 1.7-1.7 1.7.7 1.7 1.7c-.1 1-.8 1.7-1.7 1.7z" fill="#00b7ff"/></g><g><path d="m80.3 18.1c0-.9.7-1.7 1.7-1.7.9 0 1.7.8 1.7 1.7 0 .9-.8 1.7-1.7 1.7-1-.1-1.7-.8-1.7-1.7zm-6.8 0c0-.9.8-1.7 1.7-1.7.9 0 1.7.8 1.7 1.7 0 .9-.8 1.7-1.7 1.7-.9-.1-1.7-.8-1.7-1.7zm-6.7 0c0-.9.7-1.7 1.7-1.7.9 0 1.7.8 1.7 1.7 0 .9-.8 1.7-1.7 1.7-1-.1-1.7-.8-1.7-1.7z" fill="#00b7ff"/></g><g><path d="m23.1 26.5h-11.8c-.9 0-1.7-.8-1.7-1.7s.8-1.7 1.7-1.7h11.8c.9 0 1.7.8 1.7 1.7s-.8 1.7-1.7 1.7z" fill="#00b7ff"/></g></g><g><path d="m76.9 60.1h-3.4c-1.9 0-3.4-1.5-3.4-3.4 0-1.9 1.5-3.4 3.4-3.4h3.4c1.9 0 3.4 1.5 3.4 3.4-.1 1.9-1.6 3.4-3.4 3.4z" fill="#95edff"/><path d="m76.9 61.8h-3.4c-2.8 0-5-2.3-5-5 0-2.8 2.3-5 5-5h3.4c2.8 0 5 2.3 5 5s-2.2 5-5 5zm-3.4-6.8c-.9 0-1.7.8-1.7 1.7s.8 1.7 1.7 1.7h3.4c.9 0 1.7-.8 1.7-1.7s-.8-1.7-1.7-1.7z" fill="#00b7ff"/></g><g><path d="m60.1 60.1h-3.4c-1.9 0-3.4-1.5-3.4-3.4 0-1.9 1.5-3.4 3.4-3.4h3.4c1.9 0 3.4 1.5 3.4 3.4-.1 1.9-1.6 3.4-3.4 3.4z" fill="#b6ffc2"/><path d="m60.1 61.8h-3.4c-2.8 0-5-2.3-5-5 0-2.8 2.3-5 5-5h3.4c2.8 0 5 2.3 5 5s-2.2 5-5 5zm-3.4-6.8c-.9 0-1.7.8-1.7 1.7s.8 1.7 1.7 1.7h3.4c.9 0 1.7-.8 1.7-1.7s-.8-1.7-1.7-1.7z" fill="#00ba6e"/></g><g><path d="m43.3 60.1h-3.4c-1.9 0-3.4-1.5-3.4-3.4 0-1.9 1.5-3.4 3.4-3.4h3.4c1.9 0 3.4 1.5 3.4 3.4-.1 1.9-1.6 3.4-3.4 3.4z" fill="#ffd8a2"/><path d="m43.3 61.8h-3.4c-2.8 0-5-2.3-5-5 0-2.8 2.3-5 5-5h3.4c2.8 0 5 2.3 5 5s-2.2 5-5 5zm-3.4-6.8c-.9 0-1.7.8-1.7 1.7s.8 1.7 1.7 1.7h3.4c.9 0 1.7-.8 1.7-1.7s-.8-1.7-1.7-1.7z" fill="#ffb221"/></g><g><path d="m26.5 60.1h-3.4c-1.9 0-3.4-1.5-3.4-3.4 0-1.9 1.5-3.4 3.4-3.4h3.4c1.9 0 3.4 1.5 3.4 3.4-.1 1.9-1.6 3.4-3.4 3.4z" fill="#ffbdbd"/><path d="m26.5 61.8h-3.4c-2.8 0-5-2.3-5-5 0-2.8 2.3-5 5-5h3.4c2.8 0 5 2.3 5 5s-2.2 5-5 5zm-3.4-6.8c-.9 0-1.7.8-1.7 1.7s.8 1.7 1.7 1.7h3.4c.9 0 1.7-.8 1.7-1.7s-.8-1.7-1.7-1.7z" fill="#ff3e5f"/></g><g><path d="m81.9 70.2h-28.5c-.9 0-1.7-.8-1.7-1.7s.8-1.7 1.7-1.7h28.6c.9 0 1.7.8 1.7 1.7-.1.9-.8 1.7-1.8 1.7zm-35.3 0c-.9 0-1.7-.8-1.7-1.7s.8-1.7 1.7-1.7 1.7.8 1.7 1.7-.7 1.7-1.7 1.7zm-6.7 0h-21.8c-.9 0-1.7-.8-1.7-1.7s.8-1.7 1.7-1.7h21.8c.9 0 1.7.8 1.7 1.7s-.8 1.7-1.7 1.7z" fill="#00b7ff"/></g><g><path d="m81.9 76.9h-16.8c-.9 0-1.7-.8-1.7-1.7s.8-1.7 1.7-1.7h16.8c.9 0 1.7.8 1.7 1.7s-.7 1.7-1.7 1.7zm-23.5 0c-.9 0-1.7-.8-1.7-1.7s.8-1.7 1.7-1.7 1.7.8 1.7 1.7-.8 1.7-1.7 1.7zm-6.7 0h-16.8c-.9 0-1.7-.8-1.7-1.7s.8-1.7 1.7-1.7h16.8c.9 0 1.7.8 1.7 1.7s-.8 1.7-1.7 1.7zm-23.5 0c-.9 0-1.7-.8-1.7-1.7s.8-1.7 1.7-1.7 1.7.8 1.7 1.7c-.1.9-.8 1.7-1.7 1.7zm-6.8 0h-3.4c-.9 0-1.7-.8-1.7-1.7s.8-1.7 1.7-1.7h3.4c.9 0 1.7.8 1.7 1.7s-.7 1.7-1.7 1.7z" fill="#00b7ff"/></g><g><path d="m68.5 83.6h-50.4c-.9 0-1.7-.8-1.7-1.7s.8-1.7 1.7-1.7h50.4c.9 0 1.7.8 1.7 1.7 0 1-.8 1.7-1.7 1.7z" fill="#00b7ff"/></g><g><g><g><path d="m66 39.9h-5c-.9 0-1.7-.8-1.7-1.7v-6.7c0-.9.8-1.7 1.7-1.7h5c2.8 0 5 2.3 5 5 0 2.9-2.2 5.1-5 5.1zm-3.4-3.3h3.4c.9 0 1.7-.8 1.7-1.7s-.8-1.7-1.7-1.7h-3.4z" fill="#ff3e5f"/></g><g><path d="m66 46.6h-5c-.9 0-1.7-.8-1.7-1.7v-6.7c0-.9.8-1.7 1.7-1.7h5c2.8 0 5 2.3 5 5 0 2.9-2.2 5.1-5 5.1zm-3.4-3.3h3.4c.9 0 1.7-.8 1.7-1.7s-.8-1.7-1.7-1.7h-3.4z" fill="#ff3e5f"/></g></g><g><path d="m50 46.6c-3.2 0-5.9-2.6-5.9-5.9v-5c0-3.2 2.6-5.9 5.9-5.9 3.2 0 5.9 2.6 5.9 5.9v5c0 3.3-2.6 5.9-5.9 5.9zm0-13.4c-1.4 0-2.5 1.1-2.5 2.5v5c0 1.4 1.1 2.5 2.5 2.5s2.5-1.1 2.5-2.5v-5c.1-1.4-1.1-2.5-2.5-2.5z" fill="#ff3e5f"/></g><g><g><path d="m34.9 46.6c-3.2 0-5.9-2.6-5.9-5.9 0-.9.8-1.7 1.7-1.7s1.7.8 1.7 1.7c0 1.4 1.1 2.5 2.5 2.5s2.5-1.1 2.5-2.5v-9.2c0-.9.8-1.7 1.7-1.7s1.7.8 1.7 1.7v9.2c0 3.3-2.6 5.9-5.9 5.9z" fill="#ff3e5f"/></g></g></g></g></svg>