<svg id="Capa_1" enable-background="new 0 0 512 512" height="20" viewBox="0 0 512 512" width="20" xmlns="http://www.w3.org/2000/svg"><g><g><g><path d="m377.013 504.5h-321.862c-2.762 0-5-2.239-5-5v-358.601l331.861-29.601v388.202c.001 2.761-2.238 5-4.999 5z" fill="#eef5f6"/><path d="m108.439 140.899h-58.288v-48.563c0-2.761 2.238-5 5-5h53.287v53.563z" fill="#b3dafe"/><path d="m416.931 464.582h-321.862c-2.761 0-5-2.239-5-5v-358.601l331.861-31.767v390.368c.001 2.761-2.238 5-4.999 5z" fill="#ffe177"/><path d="m143.632 100.981h-53.563v-48.563c0-2.761 2.239-5 5-5h48.563z" fill="#6354b1"/><path d="m456.849 423.664-29.999 1h-291.863c-2.761 0-5-2.239-5-5v-358.601l301.863-30.188h28.999v388.789c0 2.761-1.239 4-4 4z" fill="#eef5f6"/><path d="m393.016 153.151-29.349 1h-164.847c-2.761 0-5-2.239-5-5v-32.382c0-2.761 2.239-5 5-5h164.68l29.516 1c2.761 0 4 1.239 4 4v32.382c0 2.761-1.239 4-4 4z" fill="#ffe177"/><path d="m240.306 242.601-14.971-1h-9.348c-2.761 0-5 2.239-5 5v34.695h33.319v-34.695c0-2.761-1.238-4-4-4z" fill="#b3dafe"/><path d="m308.077 214.762-15.827-1h-8.492c-2.762 0-5 2.239-5 5v62.534h33.319v-62.534c0-2.762-1.238-4-4-4z" fill="#fd8087"/><path d="m375.849 192.651-16.986-1h-7.332c-2.762 0-5 2.239-5 5v84.646h17.32 15.998v-84.646c0-2.762-1.239-4-4-4z" fill="#ffe177"/><path d="m461.85 61.06v358.6c0 2.77-2.24 5-5 5h-30c2.76 0 5-2.23 5-5v-388.79z" fill="#deecf1"/><path d="m460.849 61.063h-330.862v-48.563c0-2.761 2.239-5 5-5h291.863l29.999 1c2.762 0 4 1.239 4 4z" fill="#fd8087"/><path d="m461.85 12.5v48.56h-30v-48.56c0-2.76-2.24-5-5-5h30c2.76 0 5 2.24 5 5z" fill="#e6646e"/><path d="m398.02 116.77v32.38c0 2.76-2.24 5-5 5h-30c2.76 0 5-2.24 5-5v-32.38c0-2.76-2.24-5-5-5h30c2.76 0 5 2.24 5 5z" fill="#ffc344"/><path d="m380.85 196.65v84.65h-17v-84.65c0-2.76-2.24-5-5-5h17c2.76 0 5 2.24 5 5z" fill="#ffc344"/><path d="m313.08 218.76v62.54h-17v-62.54c0-2.76-2.24-5-5-5h17c2.76 0 5 2.24 5 5z" fill="#e6646e"/><path d="m245.31 246.6v34.7h-15v-34.7c0-2.76-2.24-5-5-5h15c2.76 0 5 2.24 5 5z" fill="#8ac9fe"/></g></g><g><path d="m42.651 499.5c0 6.893 5.607 12.5 12.5 12.5h33.542c4.142 0 7.5-3.358 7.5-7.5s-3.358-7.5-7.5-7.5h-31.042v-348.601h24.918v212.408c0 4.142 3.358 7.5 7.5 7.5s7.5-3.358 7.5-7.5v-252.326h24.918v311.184c0 6.893 5.607 12.5 12.5 12.5h279.443v24.918h-316.861v-63.589c0-4.142-3.358-7.5-7.5-7.5s-7.5 3.358-7.5 7.5v66.089c0 6.893 5.607 12.5 12.5 12.5h279.443v24.917h-253.131c-4.142 0-7.5 3.358-7.5 7.5s3.358 7.5 7.5 7.5h255.632c6.893 0 12.5-5.607 12.5-12.5v-27.418h27.418c6.892 0 12.5-5.607 12.5-12.5v-27.418h27.418c6.893 0 12.5-5.607 12.5-12.5v-69.919c0-4.142-3.358-7.5-7.5-7.5s-7.5 3.358-7.5 7.5v67.419h-316.862v-348.601h316.861v248.496c0 4.142 3.358 7.5 7.5 7.5s7.5-3.358 7.5-7.5v-304.559c0-6.893-5.607-12.5-12.5-12.5h-321.861c-6.893 0-12.5 5.607-12.5 12.5v27.418h-27.418c-6.893 0-12.5 5.607-12.5 12.5v27.418h-27.418c-6.893 0-12.5 5.607-12.5 12.5zm39.918-366.101h-24.918v-38.563h24.918zm15-39.918v-38.563h24.918v6.145 32.418zm39.918-78.481h316.861v38.563h-316.861z"/><path d="m398.016 316.178h-204.196c-4.142 0-7.5 3.358-7.5 7.5s3.358 7.5 7.5 7.5h204.195c4.142 0 7.5-3.358 7.5-7.5.001-4.142-3.357-7.5-7.499-7.5z"/><path d="m398.016 273.796h-9.667v-77.146c0-6.893-5.607-12.5-12.5-12.5h-24.319c-6.893 0-12.5 5.607-12.5 12.5v77.146h-18.453v-55.035c0-6.893-5.607-12.5-12.5-12.5h-24.318c-6.893 0-12.5 5.607-12.5 12.5v55.035h-18.453v-27.195c0-6.893-5.607-12.5-12.5-12.5h-24.319c-6.893 0-12.5 5.607-12.5 12.5v27.195h-9.667c-4.142 0-7.5 3.358-7.5 7.5s3.358 7.5 7.5 7.5h204.195c4.142 0 7.5-3.358 7.5-7.5.001-4.142-3.357-7.5-7.499-7.5zm-43.986-74.646h19.319v74.646h-19.319zm-67.771 22.112h19.318v52.535h-19.318zm-67.772 27.839h19.319v24.695h-19.319z"/><path d="m398.016 358.56h-204.196c-4.142 0-7.5 3.358-7.5 7.5s3.358 7.5 7.5 7.5h204.195c4.142 0 7.5-3.358 7.5-7.5.001-4.142-3.357-7.5-7.499-7.5z"/><path d="m405.516 116.769c0-6.892-5.607-12.5-12.5-12.5h-194.196c-6.893 0-12.5 5.608-12.5 12.5v32.382c0 6.893 5.607 12.5 12.5 12.5h194.195c6.893 0 12.5-5.607 12.5-12.5v-32.382zm-15 29.882h-189.196v-27.382h189.195v27.382z"/><path d="m162.724 26.702c-4.186 0-7.58 3.394-7.58 7.58 0 4.186 3.393 7.58 7.58 7.58 4.186 0 7.58-3.393 7.58-7.58-.001-4.187-3.394-7.58-7.58-7.58z"/><path d="m187.014 26.702c-4.186 0-7.58 3.394-7.58 7.58 0 4.186 3.394 7.58 7.58 7.58s7.58-3.393 7.58-7.58c-.001-4.187-3.394-7.58-7.58-7.58z"/><path d="m211.304 26.702c-4.186 0-7.58 3.394-7.58 7.58 0 4.186 3.393 7.58 7.58 7.58 4.186 0 7.58-3.393 7.58-7.58-.001-4.187-3.394-7.58-7.58-7.58z"/></g></g></svg>